<?xml version="1.0" encoding="utf-8"?>
<!-- Generator: Adobe Illustrator 26.2.1, SVG Export Plug-In . SVG Version: 6.00 Build 0)  -->
<svg version="1.1" id="Layer_1" xmlns="http://www.w3.org/2000/svg" xmlns:xlink="http://www.w3.org/1999/xlink" x="0px" y="0px"
	 viewBox="0 0 1077.4 294" style="enable-background:new 0 0 1077.4 294;" xml:space="preserve">
<style type="text/css">
	.st0{clip-path:url(#SVGID_00000005983495271212614860000014307919848815111595_);}
	.st1{fill:#2D706C;}
	.st2{fill:#53AAA1;}
	.st3{fill:#B2A174;}
	.st4{fill:#D6B980;}
	.st5{enable-background:new    ;}
	.st6{fill:#FFFFFF;}
</style>
<g>
	<g>
		<g>
			<g>
				<defs>
					<rect id="SVGID_1_" x="-1.4" width="309.5" height="279.8"/>
				</defs>
				<clipPath id="SVGID_00000005959629666211879670000010066085445727460748_">
					<use xlink:href="#SVGID_1_"  style="overflow:visible;"/>
				</clipPath>
				<g style="clip-path:url(#SVGID_00000005959629666211879670000010066085445727460748_);">
					<g>
						<path class="st1" d="M207.2,130.3c8.4-7.3,11.5-14.4,0-26.3c-2.6-16-19-42.5-33.7-49.2C158.9,48.2,146,33.5,145.4,26
							c0,7.5-5.5,20.4-28.1,29.2s-26.8,41.2-30.5,46.5c-3.6,5.3-12.5,10.7-4.7,15.3C89.8,121.6,207.2,130.3,207.2,130.3z"/>
						<path class="st2" d="M124.6,95.9l1-36.4l12-17c-4.3,4.4-10.9,9-20.4,12.7c-22.6,8.9-26.8,41.2-30.5,46.5S74.2,112.4,82,117
							c2.8,1.7,21,4,42.5,6.2L124.6,95.9L124.6,95.9z"/>
						<polygon class="st3" points="82.6,113.1 124.6,95.9 174.4,95.9 211.6,120.4 211.6,184.7 82.6,184.9 						"/>
						<polygon class="st3" points="153.9,7.9 147.3,7.9 147.3,1.4 144.4,1.4 144.4,7.9 137.8,7.9 137.8,11.8 144.4,11.8 144.4,33.1 
							147.3,33.1 147.3,11.8 153.9,11.8 						"/>
						<polygon class="st4" points="124.6,153.1 124.6,95.9 82.6,113.1 82.6,203.3 124.6,203.2 						"/>
					</g>
					<polygon class="st1" points="-30.3,232.6 316.3,232.6 316.3,194 211.6,194 104.3,182 82.6,194 -30.3,194 					"/>
					<g>
						<path class="st1" d="M12.3,157.7c-4.2-2.6-9.2-11.1-4.2-20.3c4.9-9.2,11.8-22.6,29.7-28.8c8.3-2.9,11.9-21.9,11.9-21.9
							s4.1,19.3,9.6,22.2c5.5,2.9,27.8,18.9,27.8,37.9S77,159,77,159L12.3,157.7z"/>
						<path class="st2" d="M30.2,140.1l10.9-33.6c-1,1-2.1,1.7-3.4,2.2c-18,6.2-24.8,19.6-29.7,28.8s0,17.6,4.2,20.3l18,0.4
							L30.2,140.1L30.2,140.1z"/>
						<polygon class="st3" points="84.2,217.3 84.2,149.3 64.2,140.1 30.2,140.1 8,151.5 8,213.8 						"/>
						<polygon class="st3" points="57.7,67.5 51.2,67.5 51.2,61 48.2,61 48.2,67.5 41.7,67.5 41.7,71.5 48.2,71.5 48.2,92.7 
							51.2,92.7 51.2,71.5 57.7,71.5 						"/>
						<polygon class="st4" points="30.2,140.1 8,151.5 8,213.8 8.9,213.8 30.2,197.2 						"/>
					</g>
					<g>
						<path class="st1" d="M225.3,163.1c-4.2-2.6-9.2-11.1-4.2-20.3c4.9-9.2,11.7-22.6,29.7-28.8c8.3-2.9,11.9-21.9,11.9-21.9
							s4.1,19.2,9.6,22.1c5.5,2.9,27.8,18.9,27.8,37.9S290,164.3,290,164.3L225.3,163.1z"/>
						<path class="st2" d="M243.3,145.4l14.1-37.9c-1.7,3-3.9,5.5-6.6,6.5c-18,6.2-24.8,19.6-29.7,28.8s0,17.6,4.2,20.3l18,0.4
							L243.3,145.4L243.3,145.4z"/>
						<polygon class="st3" points="297.2,222.6 297.2,154.5 277.3,145.4 243.3,145.4 221,156.9 221,197.7 						"/>
						<polygon class="st3" points="270.7,72.9 264.2,72.9 264.2,66.3 261.3,66.3 261.3,72.9 254.7,72.9 254.7,76.8 261.3,76.8 
							261.3,98 264.2,98 264.2,76.8 270.7,76.8 						"/>
						<polygon class="st4" points="243.3,145.4 221,156.9 221,197.7 243.3,204.9 						"/>
					</g>
					<polygon class="st1" points="-30.3,252.4 316.3,252.4 316.3,202.3 297.2,202.3 279.9,196.7 243.3,196.7 226.4,202.3 
						84.6,202.3 64.2,196.7 33.4,196.7 8.5,202.3 -30.3,202.3 					"/>
					<path class="st1" d="M87.1,231.6h165.5c0-0.6,0.1-1.2,0.1-1.7c0.7-45.1-35.8-81.7-81.5-81.6c-45.8,0-83.4,36.6-84.2,81.7
						C87.1,230.4,87.1,231,87.1,231.6z"/>
					<path class="st3" d="M245.6,240.6c0-0.7,0.1-1.3,0.1-2c0.7-41.2-32.7-74.6-74.5-74.6S95,197.4,94.3,238.7c0,0.7,0,1.3,0,1.9
						H-30.3V294h346.6v-53.4H245.6L245.6,240.6z"/>
				</g>
			</g>
		</g>
	</g>
</g>
<g>
	<g class="st5">
		<path class="st6" d="M369,50.9c-2.2,0-4.1-0.2-5.7-0.7s-3-1.1-4.1-1.9c-1.1-0.8-1.9-1.8-2.5-2.9c-0.6-1.2-0.8-2.4-0.8-3.8
			c0-1.3,0.4-2.4,1.2-3.2c0.8-0.8,2-1.2,3.5-1.2c0.1,1.4,0.3,2.7,0.6,4c0.4,1.3,0.9,2.4,1.6,3.4s1.6,1.7,2.7,2.3s2.4,0.9,4,0.9
			c3,0,5.3-0.7,7-2.1s2.5-3.5,2.5-6.2c0-1.2-0.2-2.3-0.5-3.2s-0.9-1.8-1.7-2.6c-0.8-0.8-1.8-1.5-3.2-2.3c-1.3-0.7-2.9-1.5-4.9-2.3
			s-3.8-1.7-5.4-2.7c-1.5-1-2.8-2-3.8-3.2s-1.8-2.5-2.3-3.9s-0.7-3.1-0.7-4.9c0-1.9,0.4-3.6,1.1-5.1s1.7-2.7,3-3.8s2.8-1.8,4.6-2.3
			c1.8-0.5,3.7-0.8,5.8-0.8c2,0,3.7,0.2,5.3,0.6c1.5,0.4,2.8,1,3.9,1.6c1.1,0.7,1.9,1.5,2.4,2.4s0.8,1.8,0.8,2.8
			c0,1.4-0.5,2.5-1.4,3.2s-2.2,1.1-3.8,1.1c0-1-0.1-2.1-0.4-3.1c-0.2-1-0.7-1.9-1.2-2.7c-0.6-0.8-1.3-1.4-2.3-1.9
			c-0.9-0.5-2.1-0.7-3.5-0.7c-1.3,0-2.4,0.2-3.4,0.5c-1,0.4-1.8,0.9-2.5,1.5c-0.7,0.7-1.2,1.4-1.6,2.4c-0.4,0.9-0.5,2-0.5,3.1
			c0,1.3,0.2,2.5,0.5,3.5s0.9,1.9,1.7,2.7c0.8,0.8,1.9,1.6,3.2,2.3c1.3,0.7,2.9,1.5,4.8,2.2c1.9,0.8,3.7,1.6,5.2,2.5s2.8,1.9,3.9,3
			s1.9,2.3,2.4,3.7c0.6,1.3,0.8,2.9,0.8,4.6c0,2.1-0.4,4-1.1,5.6c-0.8,1.6-1.9,3-3.3,4.2c-1.4,1.1-3.1,2-5.1,2.6
			C373.8,50.6,371.5,50.9,369,50.9z"/>
		<path class="st6" d="M406.4,17.4c-1.3,0-2.3,0.2-3.1,0.5c-0.8,0.4-1.4,0.9-1.8,1.5s-0.7,1.4-0.9,2.3c-0.2,0.9-0.2,1.8-0.2,2.9
			c-1.8,0-3.2-0.3-4.2-0.9s-1.4-1.7-1.4-3.2c0-1.1,0.3-2.1,0.9-2.9s1.5-1.4,2.6-2c1.1-0.5,2.4-0.9,3.8-1.1c1.4-0.2,3-0.4,4.6-0.4
			c2,0,3.8,0.2,5.3,0.6c1.5,0.4,2.8,1,3.8,2c1,0.9,1.8,2.1,2.3,3.5c0.5,1.5,0.8,3.2,0.8,5.3v17.2c0,0.9,0.1,1.7,0.2,2.3
			c0.2,0.6,0.4,1.1,0.7,1.5c0.3,0.4,0.7,0.6,1.3,0.8s1.2,0.2,1.9,0.2h0.2v2.8h-9l-1-5.7h-0.5c-0.7,0.9-1.4,1.8-2,2.6s-1.4,1.4-2.1,2
			c-0.8,0.6-1.7,1-2.6,1.3c-1,0.3-2.2,0.5-3.5,0.5c-1.5,0-2.8-0.2-4.1-0.6c-1.3-0.4-2.3-1.1-3.3-1.9c-0.9-0.9-1.6-2-2.1-3.3
			s-0.8-2.9-0.8-4.7c0-3.5,1.2-6.1,3.7-7.8s6.3-2.6,11.3-2.8l5.5-0.2v-4c0-1.2-0.1-2.3-0.2-3.3s-0.4-1.9-0.8-2.6s-1.1-1.3-1.9-1.7
			S407.8,17.4,406.4,17.4z M398.4,40.7c0,2.1,0.4,3.6,1.3,4.6s2.2,1.5,4.1,1.5c1.3,0,2.5-0.2,3.6-0.6c1.1-0.4,2-1,2.8-1.8
			s1.4-1.8,1.8-2.9c0.4-1.1,0.6-2.4,0.6-3.8v-5.4l-4.2,0.2c-1.9,0.1-3.4,0.3-4.7,0.7c-1.3,0.4-2.3,0.9-3.1,1.6
			c-0.8,0.7-1.3,1.5-1.7,2.5C398.6,38.2,398.4,39.4,398.4,40.7z"/>
		<path class="st6" d="M428.3,47.5c0.7,0,1.4,0,2.1-0.1s1.2-0.3,1.7-0.6s0.9-0.7,1.2-1.3c0.3-0.6,0.4-1.4,0.4-2.3v-21
			c0-1-0.1-1.8-0.4-2.3c-0.3-0.6-0.7-1-1.2-1.4s-1.1-0.5-1.7-0.6c-0.7-0.1-1.4-0.2-2.1-0.2h-0.2v-2.8h11.8v28c0,1,0.1,1.9,0.4,2.5
			s0.7,1.1,1.2,1.4c0.5,0.3,1.1,0.6,1.7,0.7c0.7,0.1,1.4,0.2,2.1,0.2h0.9v2.8h-18.8v-2.8h0.9V47.5z M432.8,4.1
			c0-0.8,0.1-1.4,0.3-1.9c0.2-0.5,0.5-0.9,0.8-1.3c0.3-0.3,0.7-0.5,1.2-0.7c0.5-0.1,0.9-0.2,1.5-0.2c0.5,0,1,0.1,1.5,0.2
			s0.8,0.4,1.2,0.7c0.3,0.3,0.6,0.7,0.8,1.3c0.2,0.5,0.3,1.2,0.3,1.9c0,0.8-0.1,1.4-0.3,1.9c-0.2,0.5-0.5,0.9-0.8,1.3
			c-0.3,0.3-0.7,0.6-1.2,0.7c-0.5,0.1-0.9,0.2-1.5,0.2c-0.5,0-1-0.1-1.5-0.2c-0.5-0.1-0.9-0.4-1.2-0.7c-0.3-0.3-0.6-0.7-0.8-1.3
			C432.9,5.5,432.8,4.8,432.8,4.1z"/>
		<path class="st6" d="M466.8,47.5v2.8H449v-2.8h0.5c0.8,0,1.5-0.1,2.1-0.2c0.7-0.1,1.2-0.3,1.7-0.7c0.5-0.3,0.9-0.8,1.2-1.4
			c0.3-0.6,0.4-1.5,0.4-2.5V22.1c0-1-0.1-1.8-0.4-2.3c-0.3-0.6-0.7-1-1.2-1.4s-1.1-0.5-1.7-0.6c-0.7-0.1-1.4-0.2-2.1-0.2h-0.2v-2.8
			H460l0.9,5.4h0.3c0.7-1.2,1.4-2.2,2.2-3c0.8-0.8,1.6-1.4,2.4-1.8c0.9-0.4,1.8-0.7,2.7-0.9c1-0.2,2-0.2,3-0.2
			c1.7,0,3.3,0.3,4.7,0.8c1.4,0.5,2.5,1.3,3.5,2.3s1.7,2.4,2.2,4s0.8,3.6,0.8,5.8v15.6c0,1,0.1,1.9,0.4,2.5c0.2,0.6,0.6,1.1,1,1.4
			c0.5,0.3,1,0.6,1.6,0.7c0.6,0.1,1.3,0.2,2,0.2h0.2v2.8h-11.5v-23c0-1.4-0.1-2.7-0.4-3.8s-0.7-2.1-1.2-2.8s-1.3-1.4-2.2-1.8
			c-0.9-0.4-2.1-0.6-3.4-0.6c-1.5,0-2.8,0.3-3.8,0.9s-1.8,1.4-2.5,2.4c-0.6,1-1.1,2.1-1.3,3.4c-0.3,1.3-0.4,2.6-0.4,4.1v14
			c0,1,0.1,1.8,0.4,2.3c0.3,0.6,0.7,1,1.2,1.3s1.1,0.5,1.7,0.6c0.7,0.1,1.4,0.1,2.1,0.1C466.6,47.5,466.8,47.5,466.8,47.5z"/>
		<path class="st6" d="M507.3,47.4c0.8,0,1.5,0,2.2-0.1s1.3-0.2,2-0.3v2.9c-0.3,0.1-0.6,0.3-1.1,0.4s-0.9,0.2-1.5,0.3
			c-0.5,0.1-1.1,0.2-1.7,0.2c-0.6,0.1-1.1,0.1-1.6,0.1c-1.7,0-3.1-0.2-4.3-0.5c-1.2-0.4-2.2-0.9-3-1.7s-1.4-1.9-1.7-3.2
			c-0.4-1.3-0.6-2.9-0.6-4.8V18.6h-5v-2.7c0.8,0,1.7-0.2,2.6-0.5c1-0.3,1.8-0.9,2.5-1.6c0.8-0.8,1.4-1.8,1.8-2.9
			c0.5-1.1,0.9-2.5,1.2-4.2h3v8.1h8.7v3.8h-8.7v22.3c0,2.3,0.5,3.9,1.4,5C504.6,46.9,505.8,47.4,507.3,47.4z"/>
		<path class="st6" d="M546.6,50.9c-2.2,0-4.1-0.2-5.7-0.7c-1.6-0.5-3-1.1-4.1-1.9s-1.9-1.8-2.5-2.9c-0.6-1.2-0.8-2.4-0.8-3.8
			c0-1.3,0.4-2.4,1.2-3.2s2-1.2,3.5-1.2c0.1,1.4,0.3,2.7,0.6,4c0.4,1.3,0.9,2.4,1.6,3.4c0.7,1,1.6,1.7,2.7,2.3
			c1.1,0.6,2.4,0.9,4,0.9c3,0,5.3-0.7,7-2.1c1.7-1.4,2.5-3.5,2.5-6.2c0-1.2-0.2-2.3-0.5-3.2s-0.9-1.8-1.7-2.6s-1.8-1.5-3.2-2.3
			c-1.3-0.7-2.9-1.5-4.9-2.3s-3.8-1.7-5.4-2.7c-1.5-1-2.8-2-3.8-3.2s-1.8-2.5-2.3-3.9s-0.7-3.1-0.7-4.9c0-1.9,0.4-3.6,1.1-5.1
			s1.7-2.7,3-3.8c1.3-1,2.8-1.8,4.6-2.3s3.7-0.8,5.8-0.8c2,0,3.7,0.2,5.3,0.6c1.5,0.4,2.8,1,3.9,1.6s1.9,1.5,2.4,2.4
			s0.8,1.8,0.8,2.8c0,1.4-0.5,2.5-1.4,3.2s-2.2,1.1-3.8,1.1c0-1-0.1-2.1-0.4-3.1c-0.2-1-0.7-1.9-1.2-2.7c-0.6-0.8-1.3-1.4-2.3-1.9
			c-0.9-0.5-2.1-0.7-3.5-0.7c-1.3,0-2.4,0.2-3.4,0.5c-1,0.4-1.8,0.9-2.5,1.5s-1.2,1.4-1.6,2.4c-0.4,0.9-0.5,2-0.5,3.1
			c0,1.3,0.2,2.5,0.5,3.5s0.9,1.9,1.7,2.7s1.9,1.6,3.2,2.3c1.3,0.7,2.9,1.5,4.8,2.2c1.9,0.8,3.7,1.6,5.2,2.5s2.8,1.9,3.9,3
			c1.1,1.1,1.9,2.3,2.4,3.7c0.6,1.3,0.8,2.9,0.8,4.6c0,2.1-0.4,4-1.1,5.6c-0.8,1.6-1.9,3-3.3,4.2c-1.4,1.1-3.1,2-5.1,2.6
			C551.3,50.6,549.1,50.9,546.6,50.9z"/>
		<path class="st6" d="M600.8,32.5c0,6.2-1.3,10.9-4,13.9c-2.6,3-6.5,4.6-11.6,4.6c-2.4,0-4.5-0.4-6.4-1.1s-3.5-1.9-4.8-3.4
			s-2.3-3.5-3-5.8s-1-5-1-8.1c0-6.2,1.3-10.8,3.9-13.8s6.5-4.5,11.6-4.5c2.4,0,4.5,0.4,6.4,1.1s3.5,1.9,4.8,3.4s2.3,3.4,3,5.7
			S600.8,29.4,600.8,32.5z M576.3,32.5c0,2.5,0.2,4.6,0.5,6.5s0.8,3.4,1.6,4.7c0.7,1.3,1.7,2.2,2.8,2.9s2.6,1,4.2,1
			c1.7,0,3.1-0.3,4.2-1s2.1-1.6,2.8-2.9c0.7-1.3,1.2-2.8,1.5-4.7s0.5-4,0.5-6.5s-0.2-4.6-0.5-6.5s-0.8-3.4-1.6-4.6
			c-0.7-1.2-1.6-2.2-2.8-2.8c-1.2-0.6-2.6-0.9-4.2-0.9c-1.7,0-3.1,0.3-4.2,0.9s-2.1,1.6-2.8,2.8c-0.7,1.2-1.2,2.8-1.6,4.6
			S576.3,30,576.3,32.5z"/>
		<path class="st6" d="M641.5,32.5c0,3.2-0.3,5.9-0.9,8.3c-0.6,2.3-1.5,4.2-2.6,5.8c-1.1,1.5-2.6,2.6-4.2,3.3
			c-1.7,0.7-3.6,1.1-5.8,1.1c-1.3,0-2.4-0.1-3.5-0.4c-1-0.3-2-0.7-2.8-1.2s-1.6-1.1-2.2-1.8c-0.6-0.7-1.2-1.5-1.7-2.4h-0.3
			c0,1.1,0.1,2.2,0.1,3.2c0,0.4,0,0.8,0,1.3c0,0.4,0,0.9,0,1.2c0,0.4,0,0.7,0,1.1c0,0.3,0,0.6,0,0.7V59c0,1,0.1,1.8,0.4,2.3
			s0.7,1,1.2,1.4c0.5,0.3,1.1,0.5,1.7,0.6c0.7,0.1,1.4,0.1,2.1,0.1h0.2v2.8h-17.8v-2.8h0.5c0.8,0,1.5-0.1,2.1-0.2
			c0.7-0.1,1.2-0.3,1.7-0.7c0.5-0.3,0.9-0.8,1.2-1.5c0.3-0.6,0.4-1.5,0.4-2.5V22.1c0-1-0.1-1.8-0.4-2.3c-0.3-0.6-0.7-1-1.2-1.4
			c-0.5-0.3-1.1-0.5-1.7-0.6c-0.7-0.1-1.4-0.2-2.1-0.2h-0.8v-2.8h11.6l0.7,6h0.3c0.5-1,1.1-1.9,1.7-2.7c0.6-0.8,1.3-1.5,2.2-2.1
			c0.8-0.6,1.7-1,2.8-1.3c1-0.3,2.2-0.5,3.5-0.5c2.2,0,4.1,0.4,5.8,1.1c1.7,0.7,3.1,1.8,4.2,3.3c1.1,1.5,2,3.4,2.6,5.7
			S641.5,29.3,641.5,32.5z M626.8,18.4c-1.7,0-3.2,0.3-4.3,0.9c-1.2,0.6-2.1,1.4-2.8,2.6s-1.2,2.6-1.5,4.4s-0.4,3.8-0.4,6.2
			c0,2.3,0.1,4.3,0.4,6.1c0.3,1.8,0.8,3.3,1.5,4.5s1.6,2.1,2.8,2.7c1.2,0.6,2.6,0.9,4.3,0.9c1.5,0,2.7-0.3,3.7-0.9
			c1-0.6,1.9-1.5,2.5-2.7c0.7-1.2,1.1-2.7,1.4-4.5s0.5-3.8,0.5-6.2c0-2.3-0.2-4.4-0.5-6.2s-0.8-3.2-1.4-4.4c-0.7-1.2-1.5-2-2.6-2.6
			C629.5,18.7,628.3,18.4,626.8,18.4z"/>
		<path class="st6" d="M664.1,47.5v2.8h-17.8v-2.8h0.5c0.8,0,1.5-0.1,2.1-0.2c0.7-0.1,1.2-0.3,1.7-0.7s0.9-0.8,1.2-1.4
			c0.3-0.6,0.4-1.5,0.4-2.5V7.3c0-1-0.1-1.8-0.4-2.3c-0.3-0.6-0.7-1-1.2-1.4c-0.5-0.3-1.1-0.5-1.7-0.6s-1.4-0.1-2.1-0.1h-0.5V0h12.2
			v14.5c0,0.6,0,1.2,0,1.9c0,0.7-0.1,1.3-0.1,1.8c0,0.6-0.1,1.3-0.1,1.9h0.3c2-4,5.2-6,9.7-6c1.9,0,3.5,0.3,5,0.8s2.7,1.3,3.7,2.3
			s1.7,2.4,2.3,4c0.5,1.6,0.8,3.6,0.8,5.8v15.6c0,1,0.1,1.9,0.4,2.5c0.3,0.6,0.6,1.1,1.1,1.4s1,0.6,1.6,0.7c0.6,0.1,1.3,0.2,2,0.2
			h0.2v2.8h-11.5V27.4c0-1.4-0.1-2.7-0.4-3.8c-0.3-1.1-0.7-2.1-1.2-2.8c-0.6-0.8-1.3-1.4-2.2-1.8s-2.1-0.6-3.4-0.6
			c-1.4,0-2.6,0.3-3.6,0.8s-1.8,1.2-2.5,2.2c-0.7,0.9-1.1,2.1-1.5,3.4c-0.3,1.3-0.5,2.8-0.5,4.4v14c0,1,0.1,1.8,0.4,2.3
			c0.3,0.6,0.7,1,1.2,1.3s1.1,0.5,1.7,0.6C662.6,47.5,663.3,47.5,664.1,47.5C664,47.5,664.1,47.5,664.1,47.5z"/>
		<path class="st6" d="M689.5,47.5c0.7,0,1.4,0,2.1-0.1c0.7-0.1,1.2-0.3,1.7-0.6s0.9-0.7,1.2-1.3s0.4-1.4,0.4-2.3v-21
			c0-1-0.1-1.8-0.4-2.3c-0.3-0.6-0.7-1-1.2-1.4c-0.5-0.3-1.1-0.5-1.7-0.6c-0.7-0.1-1.4-0.2-2.1-0.2h-0.2v-2.8h11.8v28
			c0,1,0.1,1.9,0.4,2.5c0.3,0.6,0.7,1.1,1.2,1.4c0.5,0.3,1.1,0.6,1.7,0.7c0.7,0.1,1.4,0.2,2.1,0.2h0.9v2.8h-18.8v-2.8h0.9
			L689.5,47.5L689.5,47.5z M694,4.1c0-0.8,0.1-1.4,0.3-1.9s0.5-0.9,0.8-1.3c0.3-0.3,0.7-0.5,1.2-0.7s0.9-0.2,1.5-0.2
			c0.5,0,1,0.1,1.5,0.2s0.8,0.4,1.2,0.7s0.6,0.7,0.8,1.3c0.2,0.5,0.3,1.2,0.3,1.9c0,0.8-0.1,1.4-0.3,1.9s-0.5,0.9-0.8,1.3
			s-0.7,0.6-1.2,0.7c-0.5,0.1-0.9,0.2-1.5,0.2c-0.5,0-1-0.1-1.5-0.2c-0.5-0.1-0.9-0.4-1.2-0.7c-0.3-0.3-0.6-0.7-0.8-1.3
			C694.1,5.5,694,4.8,694,4.1z"/>
		<path class="st6" d="M727.3,50.9c-2.4,0-4.5-0.4-6.4-1.2s-3.5-2-4.8-3.5c-1.3-1.6-2.3-3.5-3-5.7s-1-4.8-1-7.7
			c0-6.2,1.3-10.8,3.8-14c2.5-3.1,6.2-4.7,10.9-4.7c2.1,0,4,0.3,5.8,1c1.7,0.7,3.1,1.7,4.3,3s2.1,3,2.7,4.9c0.6,2,1,4.3,1,6.9v3h-22
			c0,2.4,0.3,4.5,0.7,6.2s1.1,3.2,1.9,4.3c0.8,1.1,1.8,1.9,3.1,2.5c1.2,0.5,2.6,0.8,4.2,0.8c1.1,0,2.2-0.1,3.2-0.4
			c1-0.3,1.9-0.6,2.7-1s1.5-0.9,2.1-1.5c0.6-0.5,1.1-1.1,1.5-1.7c0.3,0.1,0.6,0.4,0.9,0.8c0.3,0.4,0.4,0.9,0.4,1.5
			c0,0.7-0.2,1.4-0.7,2.1c-0.5,0.8-1.2,1.5-2.2,2.1s-2.2,1.2-3.6,1.6C730.9,50.7,729.2,50.9,727.3,50.9z M726.4,17.7
			c-2.5,0-4.3,1-5.7,3c-1.3,2-2.1,4.9-2.3,8.7h15.2c0-1.7-0.1-3.3-0.4-4.8c-0.3-1.4-0.7-2.7-1.2-3.7c-0.6-1-1.3-1.8-2.2-2.4
			C728.9,18,727.8,17.7,726.4,17.7z"/>
	</g>
	<g class="st5">
		<path class="st6" d="M368.4,100.7c-1.7,0-3.2-0.2-4.6-0.5c-1.4-0.4-2.5-0.9-3.4-1.7c-0.9-0.8-1.7-1.8-2.2-3s-0.7-2.7-0.7-4.5V74
			c0-0.6-0.1-1.1-0.3-1.5c-0.2-0.4-0.4-0.7-0.8-0.9s-0.7-0.3-1.1-0.4s-0.9-0.1-1.4-0.1h-0.6v-1.8h12.6v1.8h-0.6
			c-0.5,0-0.9,0-1.4,0.1c-0.4,0.1-0.8,0.2-1.1,0.4c-0.3,0.2-0.6,0.5-0.8,0.9c-0.2,0.4-0.3,1-0.3,1.6V91c0,1.3,0.2,2.3,0.5,3.2
			s0.9,1.6,1.5,2.2s1.4,1,2.3,1.2c0.9,0.3,1.9,0.4,2.9,0.4c1.3,0,2.3-0.2,3.3-0.5c0.9-0.3,1.7-0.8,2.3-1.4c0.6-0.6,1-1.3,1.3-2.1
			c0.3-0.8,0.4-1.7,0.4-2.7V74c0-0.6-0.1-1.1-0.3-1.5c-0.2-0.4-0.4-0.7-0.8-0.9c-0.3-0.2-0.7-0.3-1.1-0.4s-0.9-0.1-1.4-0.1H372v-1.8
			h10.9v1.8h-0.6c-0.5,0-0.9,0-1.4,0.1c-0.4,0.1-0.8,0.2-1.1,0.4s-0.6,0.5-0.8,0.9c-0.2,0.4-0.3,1-0.3,1.6v17.2
			c0,1.4-0.2,2.7-0.7,3.9s-1.1,2.1-2,2.9s-2,1.4-3.3,1.8C371.7,100.5,370.1,100.7,368.4,100.7z"/>
		<path class="st6" d="M398.6,86.3l5.8,8.6c0.7,1.2,1.5,2,2.2,2.7c0.7,0.6,1.6,0.9,2.6,0.9h0.1v1.8h-0.6c-1.3,0-2.3,0-3.1-0.1
			c-0.8-0.1-1.5-0.3-2.1-0.6c-0.6-0.3-1.1-0.7-1.6-1.3c-0.5-0.6-1-1.3-1.7-2.3l-4.3-6.8l-3.2,2.4v3.9c0,0.6,0.1,1.1,0.3,1.5
			c0.2,0.4,0.4,0.7,0.8,0.9s0.7,0.3,1.1,0.4s0.9,0.1,1.4,0.1h0.1v1.8h-11.7v-1.8h0.3c0.5,0,1,0,1.4-0.1s0.8-0.2,1.1-0.4
			c0.3-0.2,0.6-0.5,0.8-0.9s0.3-1,0.3-1.6V72c0-0.6-0.1-1.1-0.3-1.5s-0.4-0.7-0.8-0.9c-0.3-0.2-0.7-0.4-1.1-0.4
			c-0.4-0.1-0.9-0.1-1.4-0.1h-0.3v-1.8h8V84c0,0.4,0,0.9,0,1.5s0,1.2-0.1,1.8c0,0.7-0.1,1.4-0.1,2.1l5.4-5.9c0.5-0.5,0.9-1,1.2-1.4
			c0.3-0.4,0.5-0.7,0.7-1s0.3-0.6,0.4-0.8s0.1-0.5,0.1-0.7c0-0.4-0.2-0.6-0.5-0.7s-0.9-0.2-1.6-0.2V77h9.6v1.8c-1,0-2,0.4-3,1.1
			s-2,1.7-3.1,3L398.6,86.3z"/>
		<path class="st6" d="M423.2,100.3h-12.5v-1.8h0.1c0.5,0,1,0,1.4-0.1s0.8-0.2,1.1-0.4c0.3-0.2,0.6-0.5,0.8-0.9s0.3-1,0.3-1.6V81.8
			c0-0.6-0.1-1.1-0.3-1.5c-0.2-0.4-0.4-0.7-0.8-0.9c-0.3-0.2-0.7-0.4-1.1-0.4c-0.4-0.1-0.9-0.1-1.4-0.1h-0.1V77h6.7l0.8,4.3h0.2
			c0.3-0.6,0.6-1.3,0.9-1.8c0.3-0.6,0.7-1.1,1.1-1.5s1-0.8,1.6-1s1.4-0.4,2.4-0.4c1.6,0,2.8,0.3,3.5,0.8c0.8,0.6,1.2,1.3,1.2,2.3
			c0,0.5-0.1,0.9-0.2,1.3s-0.4,0.7-0.7,1c-0.3,0.3-0.7,0.5-1.3,0.6c-0.5,0.1-1.1,0.2-1.9,0.2c0-1.2-0.2-2.1-0.5-2.6
			s-0.9-0.8-1.8-0.8c-0.5,0-1,0.2-1.4,0.5s-0.8,0.7-1.1,1.2c-0.3,0.5-0.6,1.1-0.8,1.7s-0.4,1.3-0.5,2s-0.2,1.4-0.3,2
			c-0.1,0.7-0.1,1.3-0.1,1.8v6.8c0,0.6,0.1,1.1,0.3,1.5c0.2,0.4,0.4,0.7,0.8,0.9s0.7,0.3,1.1,0.4s0.9,0.1,1.4,0.1h1.2v2H423.2z"/>
		<path class="st6" d="M440.5,78.7c-0.8,0-1.5,0.1-2,0.3s-0.9,0.6-1.2,1c-0.3,0.4-0.5,0.9-0.6,1.5s-0.1,1.2-0.1,1.9
			c-1.2,0-2.1-0.2-2.7-0.6s-0.9-1.1-0.9-2.1c0-0.7,0.2-1.4,0.6-1.9s1-1,1.7-1.3s1.5-0.6,2.5-0.7c0.9-0.2,2-0.2,3-0.2
			c1.3,0,2.5,0.1,3.5,0.4s1.8,0.7,2.5,1.3s1.2,1.4,1.5,2.3c0.3,1,0.5,2.1,0.5,3.5v11.3c0,0.6,0,1.1,0.1,1.5s0.3,0.7,0.5,1
			s0.5,0.4,0.8,0.5s0.8,0.1,1.2,0.1h0.1v1.8h-5.9l-0.7-3.7h-0.4c-0.5,0.6-0.9,1.2-1.3,1.7s-0.9,0.9-1.4,1.3s-1.1,0.7-1.7,0.9
			c-0.6,0.2-1.4,0.3-2.3,0.3c-1,0-1.9-0.1-2.7-0.4s-1.5-0.7-2.1-1.3c-0.6-0.6-1.1-1.3-1.4-2.2c-0.3-0.9-0.5-1.9-0.5-3.1
			c0-2.3,0.8-4,2.5-5.1s4.1-1.7,7.4-1.8l3.6-0.1v-2.6c0-0.8,0-1.5-0.1-2.2s-0.3-1.2-0.6-1.7s-0.7-0.8-1.2-1.1
			C442.1,78.9,441.4,78.7,440.5,78.7z M435.2,94c0,1.4,0.3,2.4,0.9,3c0.6,0.7,1.5,1,2.7,1c0.9,0,1.7-0.1,2.4-0.4
			c0.7-0.3,1.3-0.7,1.8-1.2s0.9-1.2,1.2-1.9c0.3-0.7,0.4-1.6,0.4-2.5v-3.5l-2.8,0.1c-1.2,0.1-2.3,0.2-3.1,0.5c-0.8,0.2-1.5,0.6-2,1
			s-0.9,1-1.1,1.6S435.2,93.1,435.2,94z"/>
		<path class="st6" d="M454.9,98.5c0.5,0,0.9,0,1.4-0.1c0.4-0.1,0.8-0.2,1.1-0.4c0.3-0.2,0.6-0.5,0.8-0.9c0.2-0.4,0.3-0.9,0.3-1.5
			V81.8c0-0.6-0.1-1.1-0.3-1.5c-0.2-0.4-0.4-0.7-0.8-0.9c-0.3-0.2-0.7-0.4-1.1-0.4c-0.4-0.1-0.9-0.1-1.4-0.1h-0.1V77h7.8v18.3
			c0,0.7,0.1,1.2,0.3,1.6s0.4,0.7,0.8,0.9c0.3,0.2,0.7,0.4,1.1,0.4c0.4,0.1,0.9,0.1,1.4,0.1h0.6v1.8h-12.3v-1.8h0.4L454.9,98.5
			L454.9,98.5z M457.8,69.9c0-0.5,0.1-0.9,0.2-1.3c0.1-0.3,0.3-0.6,0.5-0.8c0.2-0.2,0.5-0.4,0.8-0.4s0.6-0.1,1-0.1
			c0.3,0,0.7,0,1,0.1s0.6,0.2,0.8,0.4s0.4,0.5,0.5,0.8s0.2,0.8,0.2,1.3s-0.1,0.9-0.2,1.3c-0.1,0.3-0.3,0.6-0.5,0.8
			c-0.2,0.2-0.5,0.4-0.8,0.5s-0.6,0.1-1,0.1s-0.7,0-1-0.1s-0.6-0.2-0.8-0.5c-0.2-0.2-0.4-0.5-0.5-0.8S457.8,70.5,457.8,69.9z"/>
		<path class="st6" d="M480.1,98.5v1.8h-11.7v-1.8h0.4c0.5,0,1,0,1.4-0.1s0.8-0.2,1.1-0.4c0.3-0.2,0.6-0.5,0.8-0.9s0.3-1,0.3-1.6
			V81.8c0-0.6-0.1-1.1-0.3-1.5c-0.2-0.4-0.4-0.7-0.8-0.9c-0.3-0.2-0.7-0.4-1.1-0.4c-0.4-0.1-0.9-0.1-1.4-0.1h-0.1V77h7l0.6,3.5h0.2
			c0.5-0.8,0.9-1.5,1.4-2s1-0.9,1.6-1.2c0.6-0.3,1.2-0.5,1.8-0.6c0.6-0.1,1.3-0.2,2-0.2c1.1,0,2.2,0.2,3.1,0.5s1.7,0.8,2.3,1.5
			c0.6,0.7,1.1,1.6,1.4,2.6c0.3,1.1,0.5,2.4,0.5,3.8v10.3c0,0.7,0.1,1.2,0.2,1.6c0.2,0.4,0.4,0.7,0.7,0.9c0.3,0.2,0.6,0.4,1.1,0.4
			c0.4,0.1,0.9,0.1,1.3,0.1h0.1v1.8h-7.6V85c0-0.9-0.1-1.8-0.3-2.5c-0.2-0.7-0.4-1.4-0.8-1.9s-0.9-0.9-1.5-1.2s-1.4-0.4-2.2-0.4
			c-1,0-1.8,0.2-2.5,0.6s-1.2,0.9-1.6,1.5c-0.4,0.7-0.7,1.4-0.9,2.2c-0.2,0.8-0.3,1.7-0.3,2.7v9.2c0,0.6,0.1,1.1,0.3,1.5
			c0.2,0.4,0.4,0.7,0.8,0.9s0.7,0.3,1.1,0.4s0.9,0.1,1.4,0.1h0.2V98.5z"/>
		<path class="st6" d="M496.8,98.5c0.5,0,0.9,0,1.4-0.1c0.4-0.1,0.8-0.2,1.1-0.4c0.3-0.2,0.6-0.5,0.8-0.9c0.2-0.4,0.3-0.9,0.3-1.5
			V81.8c0-0.6-0.1-1.1-0.3-1.5c-0.2-0.4-0.4-0.7-0.8-0.9c-0.3-0.2-0.7-0.4-1.1-0.4c-0.4-0.1-0.9-0.1-1.4-0.1h-0.1V77h7.8v18.3
			c0,0.7,0.1,1.2,0.3,1.6c0.2,0.4,0.4,0.7,0.8,0.9c0.3,0.2,0.7,0.4,1.1,0.4c0.4,0.1,0.9,0.1,1.4,0.1h0.6v1.8h-12.3v-1.8h0.4
			L496.8,98.5L496.8,98.5z M499.7,69.9c0-0.5,0.1-0.9,0.2-1.3c0.1-0.3,0.3-0.6,0.5-0.8s0.5-0.4,0.8-0.4s0.6-0.1,1-0.1
			c0.3,0,0.7,0,1,0.1s0.6,0.2,0.8,0.4c0.2,0.2,0.4,0.5,0.5,0.8s0.2,0.8,0.2,1.3s-0.1,0.9-0.2,1.3c-0.1,0.3-0.3,0.6-0.5,0.8
			c-0.2,0.2-0.5,0.4-0.8,0.5s-0.6,0.1-1,0.1s-0.7,0-1-0.1s-0.6-0.2-0.8-0.5c-0.2-0.2-0.4-0.5-0.5-0.8S499.7,70.5,499.7,69.9z"/>
		<path class="st6" d="M520.7,78.7c-0.8,0-1.5,0.1-2,0.3c-0.5,0.2-0.9,0.6-1.2,1s-0.5,0.9-0.6,1.5s-0.1,1.2-0.1,1.9
			c-1.2,0-2.1-0.2-2.7-0.6c-0.6-0.4-0.9-1.1-0.9-2.1c0-0.7,0.2-1.4,0.6-1.9c0.4-0.5,1-1,1.7-1.3s1.5-0.6,2.5-0.7
			c0.9-0.2,2-0.2,3-0.2c1.3,0,2.5,0.1,3.5,0.4s1.8,0.7,2.5,1.3c0.7,0.6,1.2,1.4,1.5,2.3s0.5,2.1,0.5,3.5v11.3c0,0.6,0,1.1,0.1,1.5
			s0.3,0.7,0.5,1s0.5,0.4,0.8,0.5s0.8,0.1,1.2,0.1h0.1v1.8h-5.9l-0.7-3.7h-0.4c-0.5,0.6-0.9,1.2-1.3,1.7c-0.4,0.5-0.9,0.9-1.4,1.3
			s-1.1,0.7-1.7,0.9c-0.6,0.2-1.4,0.3-2.3,0.3c-1,0-1.9-0.1-2.7-0.4s-1.5-0.7-2.1-1.3c-0.6-0.6-1.1-1.3-1.4-2.2
			c-0.3-0.9-0.5-1.9-0.5-3.1c0-2.3,0.8-4,2.5-5.1c1.6-1.1,4.1-1.7,7.4-1.8l3.6-0.1v-2.6c0-0.8,0-1.5-0.1-2.2s-0.3-1.2-0.6-1.7
			s-0.7-0.8-1.2-1.1C522.3,78.9,521.6,78.7,520.7,78.7z M515.5,94c0,1.4,0.3,2.4,0.9,3c0.6,0.7,1.5,1,2.7,1c0.9,0,1.7-0.1,2.4-0.4
			s1.3-0.7,1.8-1.2s0.9-1.2,1.2-1.9c0.3-0.7,0.4-1.6,0.4-2.5v-3.5l-2.8,0.1c-1.2,0.1-2.3,0.2-3.1,0.5c-0.8,0.2-1.5,0.6-2,1
			s-0.9,1-1.1,1.6C515.6,92.4,515.5,93.1,515.5,94z"/>
		<path class="st6" d="M546.4,98.5v1.8h-11.7v-1.8h0.4c0.5,0,1,0,1.4-0.1s0.8-0.2,1.1-0.4c0.3-0.2,0.6-0.5,0.8-0.9s0.3-1,0.3-1.6
			V81.8c0-0.6-0.1-1.1-0.3-1.5s-0.4-0.7-0.8-0.9c-0.3-0.2-0.7-0.4-1.1-0.4c-0.4-0.1-0.9-0.1-1.4-0.1H535V77h7l0.6,3.5h0.2
			c0.5-0.8,0.9-1.5,1.4-2s1-0.9,1.6-1.2c0.6-0.3,1.2-0.5,1.8-0.6s1.3-0.2,2-0.2c1.1,0,2.2,0.2,3.1,0.5c0.9,0.3,1.7,0.8,2.3,1.5
			s1.1,1.6,1.4,2.6c0.3,1.1,0.5,2.4,0.5,3.8v10.3c0,0.7,0.1,1.2,0.2,1.6c0.2,0.4,0.4,0.7,0.7,0.9c0.3,0.2,0.6,0.4,1.1,0.4
			c0.4,0.1,0.9,0.1,1.3,0.1h0.1v1.8h-7.6V85c0-0.9-0.1-1.8-0.3-2.5s-0.4-1.4-0.8-1.9c-0.4-0.5-0.9-0.9-1.5-1.2
			c-0.6-0.3-1.4-0.4-2.2-0.4c-1,0-1.8,0.2-2.5,0.6s-1.2,0.9-1.6,1.5c-0.4,0.7-0.7,1.4-0.9,2.2c-0.2,0.8-0.3,1.7-0.3,2.7v9.2
			c0,0.6,0.1,1.1,0.3,1.5s0.4,0.7,0.8,0.9s0.7,0.3,1.1,0.4c0.4,0.1,0.9,0.1,1.4,0.1h0.2L546.4,98.5L546.4,98.5z"/>
		<path class="st6" d="M602.6,84.7c0,2.4-0.3,4.6-0.9,6.5s-1.5,3.6-2.6,5c-1.2,1.4-2.6,2.5-4.3,3.2c-1.7,0.8-3.6,1.1-5.8,1.1
			c-2.3,0-4.3-0.4-6-1.1c-1.7-0.8-3.1-1.8-4.3-3.2c-1.1-1.4-2-3.1-2.5-5.1s-0.8-4.2-0.8-6.6s0.3-4.6,0.8-6.5c0.6-2,1.4-3.6,2.5-5
			s2.6-2.5,4.3-3.2c1.7-0.8,3.7-1.1,6-1.1c2.2,0,4.1,0.4,5.8,1.1c1.7,0.8,3.1,1.8,4.3,3.2s2,3.1,2.6,5
			C602.3,80.1,602.6,82.3,602.6,84.7z M580.1,84.7c0,2.1,0.2,4.1,0.5,5.8s0.8,3.1,1.5,4.3c0.7,1.2,1.6,2.1,2.7,2.7
			c1.1,0.6,2.5,0.9,4.1,0.9s3-0.3,4.1-0.9s2-1.5,2.7-2.7s1.2-2.6,1.5-4.3c0.3-1.7,0.5-3.6,0.5-5.8s-0.2-4.1-0.5-5.8
			c-0.3-1.7-0.8-3.1-1.5-4.3c-0.7-1.2-1.6-2-2.7-2.7c-1.1-0.6-2.5-0.9-4.1-0.9s-3,0.3-4.1,0.9s-2.1,1.5-2.8,2.7s-1.2,2.6-1.5,4.3
			C580.3,80.7,580.1,82.6,580.1,84.7z"/>
		<path class="st6" d="M619.1,100.3h-12.5v-1.8h0.1c0.5,0,1,0,1.4-0.1s0.8-0.2,1.1-0.4c0.3-0.2,0.6-0.5,0.8-0.9s0.3-1,0.3-1.6V81.8
			c0-0.6-0.1-1.1-0.3-1.5s-0.4-0.7-0.8-0.9c-0.3-0.2-0.7-0.4-1.1-0.4c-0.4-0.1-0.9-0.1-1.4-0.1h-0.1V77h6.7l0.8,4.3h0.2
			c0.3-0.6,0.6-1.3,0.9-1.8c0.3-0.6,0.7-1.1,1.1-1.5c0.4-0.4,1-0.8,1.6-1s1.4-0.4,2.4-0.4c1.6,0,2.8,0.3,3.5,0.8
			c0.8,0.6,1.2,1.3,1.2,2.3c0,0.5-0.1,0.9-0.2,1.3s-0.4,0.7-0.7,1s-0.7,0.5-1.3,0.6c-0.5,0.1-1.1,0.2-1.9,0.2c0-1.2-0.2-2.1-0.5-2.6
			s-0.9-0.8-1.8-0.8c-0.5,0-1,0.2-1.4,0.5s-0.8,0.7-1.1,1.2s-0.6,1.1-0.8,1.7c-0.2,0.7-0.4,1.3-0.5,2s-0.2,1.4-0.3,2
			s-0.1,1.3-0.1,1.8v6.8c0,0.6,0.1,1.1,0.3,1.5s0.4,0.7,0.8,0.9s0.7,0.3,1.1,0.4c0.4,0.1,0.9,0.1,1.4,0.1h1.2v2H619.1z"/>
		<path class="st6" d="M637.1,98.4c0.5,0,1,0,1.4-0.1s0.9-0.1,1.3-0.2v1.9c-0.2,0.1-0.4,0.2-0.7,0.3s-0.6,0.2-1,0.2
			s-0.7,0.1-1.1,0.1s-0.7,0.1-1.1,0.1c-1.1,0-2.1-0.1-2.8-0.3c-0.8-0.2-1.4-0.6-2-1.1c-0.5-0.5-0.9-1.2-1.1-2.1
			c-0.2-0.9-0.4-1.9-0.4-3.2V79.5h-3.3v-1.7c0.5,0,1.1-0.1,1.7-0.3c0.6-0.2,1.2-0.6,1.7-1.1s0.9-1.2,1.2-1.9
			c0.3-0.7,0.6-1.7,0.8-2.8h2V77h5.7v2.5h-5.7v14.6c0,1.5,0.3,2.6,0.9,3.3C635.3,98.1,636.1,98.4,637.1,98.4z"/>
		<path class="st6" d="M653.3,98.5v1.8h-11.7v-1.8h0.3c0.5,0,1,0,1.4-0.1s0.8-0.2,1.1-0.4c0.3-0.2,0.6-0.5,0.8-0.9s0.3-1,0.3-1.6V72
			c0-0.6-0.1-1.1-0.3-1.5s-0.4-0.7-0.8-0.9s-0.7-0.4-1.1-0.4s-0.9-0.1-1.4-0.1h-0.3v-1.8h8v9.5c0,0.4,0,0.8,0,1.2
			c0,0.4,0,0.8-0.1,1.2c0,0.4-0.1,0.8-0.1,1.3h0.2c1.3-2.6,3.4-3.9,6.4-3.9c1.2,0,2.3,0.2,3.3,0.5s1.8,0.8,2.4,1.5
			c0.7,0.7,1.1,1.6,1.5,2.6c0.3,1.1,0.5,2.4,0.5,3.8v10.3c0,0.7,0.1,1.2,0.3,1.6s0.4,0.7,0.7,0.9c0.3,0.2,0.7,0.4,1.1,0.4
			c0.4,0.1,0.9,0.1,1.3,0.1h0.1v1.8h-7.6v-15c0-0.9-0.1-1.8-0.3-2.5s-0.4-1.4-0.8-1.9s-0.9-0.9-1.5-1.2s-1.3-0.4-2.2-0.4
			s-1.7,0.2-2.3,0.5s-1.2,0.8-1.6,1.4c-0.4,0.6-0.8,1.4-1,2.2c-0.2,0.9-0.3,1.8-0.3,2.9v9.2c0,0.6,0.1,1.1,0.3,1.5s0.4,0.7,0.8,0.9
			s0.7,0.3,1.1,0.4c0.4,0.1,0.9,0.1,1.4,0.1h0.1L653.3,98.5L653.3,98.5z"/>
		<path class="st6" d="M691.1,88.6c0,4.1-0.9,7.1-2.6,9.1c-1.7,2-4.3,3-7.6,3c-1.6,0-3-0.2-4.2-0.7s-2.3-1.2-3.2-2.2s-1.5-2.3-2-3.8
			s-0.7-3.3-0.7-5.3c0-4.1,0.9-7.1,2.6-9.1s4.3-3,7.6-3c1.6,0,3,0.2,4.2,0.7s2.3,1.2,3.2,2.2s1.5,2.2,2,3.8
			C690.9,84.8,691.1,86.6,691.1,88.6z M675,88.6c0,1.6,0.1,3,0.3,4.3c0.2,1.2,0.6,2.3,1,3.1s1.1,1.5,1.8,1.9
			c0.8,0.4,1.7,0.6,2.8,0.6s2-0.2,2.8-0.6s1.4-1,1.8-1.9s0.8-1.9,1-3.1s0.3-2.7,0.3-4.3c0-1.6-0.1-3-0.3-4.2s-0.6-2.2-1-3
			c-0.5-0.8-1.1-1.4-1.8-1.8c-0.8-0.4-1.7-0.6-2.8-0.6s-2,0.2-2.8,0.6c-0.7,0.4-1.4,1-1.8,1.8c-0.5,0.8-0.8,1.8-1,3S675,87,675,88.6
			z"/>
		<path class="st6" d="M715.5,95.5c0,0.6,0.1,1.1,0.3,1.5s0.4,0.7,0.8,0.9s0.7,0.3,1.1,0.4c0.4,0.1,0.9,0.1,1.4,0.1h0.4v1.8h-7.4
			l-0.5-3.9h-0.2c-0.3,0.7-0.7,1.3-1.1,1.8s-0.9,1-1.4,1.4s-1.1,0.7-1.8,0.9c-0.7,0.2-1.4,0.3-2.3,0.3c-1.4,0-2.7-0.2-3.8-0.7
			s-2-1.2-2.8-2.2s-1.3-2.2-1.7-3.7s-0.6-3.3-0.6-5.4s0.2-3.9,0.6-5.4c0.4-1.5,0.9-2.8,1.7-3.8c0.7-1,1.7-1.7,2.8-2.2
			s2.4-0.7,3.8-0.7c0.8,0,1.6,0.1,2.3,0.3s1.3,0.4,1.8,0.8c0.5,0.3,1,0.7,1.5,1.2c0.4,0.5,0.8,1,1.1,1.5h0.3c0-0.7-0.1-1.4-0.1-2
			c0-0.5-0.1-1.1-0.1-1.6s0-0.9,0-1.2V72c0-0.6-0.1-1.1-0.3-1.5s-0.4-0.7-0.8-0.9s-0.7-0.4-1.1-0.4s-0.9-0.1-1.4-0.1h-0.4v-1.8h8
			L715.5,95.5L715.5,95.5z M705.5,97.9c1.1,0,2.1-0.2,2.8-0.6c0.8-0.4,1.4-0.9,1.8-1.7c0.5-0.8,0.8-1.7,1-2.9
			c0.2-1.2,0.3-2.5,0.3-4.1c0-1.5-0.1-2.8-0.3-4s-0.5-2.1-1-2.9s-1.1-1.4-1.8-1.8s-1.7-0.6-2.9-0.6c-0.9,0-1.8,0.2-2.4,0.6
			s-1.2,1-1.7,1.8c-0.4,0.8-0.7,1.8-0.9,2.9c-0.2,1.2-0.3,2.5-0.3,4c0,3.1,0.4,5.4,1.3,6.9C702.2,97.2,703.5,97.9,705.5,97.9z"/>
		<path class="st6" d="M742.8,88.6c0,4.1-0.9,7.1-2.6,9.1c-1.7,2-4.3,3-7.6,3c-1.6,0-3-0.2-4.2-0.7s-2.3-1.2-3.2-2.2s-1.5-2.3-2-3.8
			s-0.7-3.3-0.7-5.3c0-4.1,0.9-7.1,2.6-9.1s4.3-3,7.6-3c1.6,0,3,0.2,4.2,0.7s2.3,1.2,3.2,2.2s1.5,2.2,2,3.8
			C742.6,84.8,742.8,86.6,742.8,88.6z M726.7,88.6c0,1.6,0.1,3,0.3,4.3c0.2,1.2,0.6,2.3,1,3.1s1.1,1.5,1.8,1.9
			c0.8,0.4,1.7,0.6,2.8,0.6s2-0.2,2.8-0.6s1.4-1,1.8-1.9s0.8-1.9,1-3.1s0.3-2.7,0.3-4.3c0-1.6-0.1-3-0.3-4.2s-0.6-2.2-1-3
			c-0.5-0.8-1.1-1.4-1.8-1.8c-0.8-0.4-1.7-0.6-2.8-0.6s-2,0.2-2.8,0.6c-0.7,0.4-1.4,1-1.8,1.8c-0.5,0.8-0.8,1.8-1,3
			S726.7,87,726.7,88.6z"/>
		<path class="st6" d="M761.9,80.1c0-0.5-0.2-0.9-0.7-1c-0.4-0.2-1-0.2-1.7-0.2h-0.1V77h9.5v1.8h-0.4c-0.4,0-0.8,0-1.2,0.1
			c-0.3,0.1-0.7,0.2-1,0.4c-0.3,0.2-0.7,0.5-1,0.8c-0.4,0.4-0.7,0.8-1.2,1.4l-4.5,6l6.4,8.6c0.6,0.8,1.2,1.4,1.8,1.8
			c0.6,0.3,1.1,0.5,1.7,0.5h0.6v1.8h-11.2v-1.8h0.2c1.7,0,2.6-0.5,2.6-1.4c0-0.2,0-0.3-0.1-0.5c0-0.2-0.1-0.4-0.3-0.6
			c-0.1-0.2-0.3-0.5-0.5-0.8s-0.5-0.7-0.8-1.1l-2.9-3.9l-3,4.2c-0.1,0.2-0.3,0.4-0.4,0.6c-0.1,0.2-0.3,0.5-0.4,0.7
			c-0.1,0.2-0.2,0.5-0.3,0.7s-0.1,0.5-0.1,0.7c0,0.5,0.2,0.8,0.6,1c0.4,0.2,1.1,0.3,2.1,0.3h0.1v1.8h-10.4v-1.8h0.4
			c0.5,0,1,0,1.4-0.1s0.8-0.2,1.1-0.4c0.4-0.2,0.7-0.5,1.1-0.9s0.7-0.8,1.2-1.3l5.5-7.1l-5.5-7.5c-0.6-0.8-1.3-1.3-1.9-1.7
			c-0.6-0.4-1.2-0.6-1.9-0.6h-0.6V77h11v1.8H757c-0.5,0-0.9,0-1.2,0.1s-0.6,0.2-0.8,0.3c-0.2,0.1-0.3,0.3-0.4,0.4
			c-0.1,0.2-0.1,0.3-0.1,0.5c0,0.3,0.1,0.6,0.3,0.9s0.4,0.7,0.8,1.1l2.9,3.9l2.2-3.2c0.3-0.5,0.6-1,0.8-1.4S761.9,80.5,761.9,80.1z"
			/>
		<path class="st6" d="M798,68.8c1.5,0,2.8,0.1,3.9,0.4c1.1,0.2,2,0.6,2.7,1s1.3,1,1.6,1.5s0.5,1.2,0.5,1.9c0,0.5-0.1,0.9-0.3,1.3
			s-0.5,0.7-0.8,1s-0.7,0.5-1.2,0.6s-1,0.2-1.5,0.2c0-0.7-0.1-1.3-0.3-2s-0.5-1.3-0.9-1.8s-0.9-1-1.6-1.3s-1.4-0.5-2.4-0.5
			c-1.6,0-3,0.3-4.2,0.9c-1.1,0.6-2.1,1.5-2.8,2.6c-0.7,1.2-1.2,2.6-1.6,4.3c-0.3,1.7-0.5,3.6-0.5,5.8c0,1.9,0.2,3.7,0.5,5.3
			c0.3,1.6,0.9,3,1.6,4.1c0.7,1.2,1.7,2,2.8,2.7c1.1,0.6,2.5,1,4.1,1c1.1,0,2-0.1,2.8-0.3c0.8-0.2,1.5-0.5,2.2-0.8
			c0.6-0.3,1.2-0.7,1.6-1.2s0.9-0.9,1.3-1.4c0.2,0.2,0.4,0.4,0.6,0.6s0.2,0.6,0.2,1.1c0,0.6-0.2,1.1-0.6,1.7
			c-0.4,0.6-0.9,1.1-1.7,1.6s-1.7,0.9-2.9,1.2c-1.2,0.3-2.6,0.5-4.2,0.5c-2.2,0-4.1-0.4-5.7-1.1c-1.6-0.8-3-1.8-4.1-3.2
			c-1.1-1.4-1.9-3.1-2.5-5c-0.6-2-0.8-4.1-0.8-6.5c0-2.3,0.3-4.5,0.9-6.4s1.5-3.6,2.6-5c1.2-1.4,2.6-2.5,4.4-3.3
			S795.7,68.8,798,68.8z"/>
		<path class="st6" d="M819.9,78.7c-0.8,0-1.5,0.1-2,0.3c-0.5,0.2-0.9,0.6-1.2,1s-0.5,0.9-0.6,1.5s-0.1,1.2-0.1,1.9
			c-1.2,0-2.1-0.2-2.7-0.6c-0.6-0.4-0.9-1.1-0.9-2.1c0-0.7,0.2-1.4,0.6-1.9c0.4-0.5,1-1,1.7-1.3s1.5-0.6,2.5-0.7
			c0.9-0.2,2-0.2,3-0.2c1.3,0,2.5,0.1,3.5,0.4s1.8,0.7,2.5,1.3c0.7,0.6,1.2,1.4,1.5,2.3c0.3,1,0.5,2.1,0.5,3.5v11.3
			c0,0.6,0,1.1,0.1,1.5s0.3,0.7,0.5,1s0.5,0.4,0.8,0.5s0.8,0.1,1.2,0.1h0.1v1.8H825l-0.7-3.7h-0.4c-0.5,0.6-0.9,1.2-1.3,1.7
			c-0.4,0.5-0.9,0.9-1.4,1.3s-1.1,0.7-1.7,0.9c-0.6,0.2-1.4,0.3-2.3,0.3c-1,0-1.9-0.1-2.7-0.4s-1.5-0.7-2.1-1.3
			c-0.6-0.6-1.1-1.3-1.4-2.2c-0.3-0.9-0.5-1.9-0.5-3.1c0-2.3,0.8-4,2.5-5.1c1.6-1.1,4.1-1.7,7.4-1.8l3.6-0.1v-2.6
			c0-0.8,0-1.5-0.1-2.2s-0.3-1.2-0.6-1.7s-0.7-0.8-1.2-1.1C821.5,78.9,820.8,78.7,819.9,78.7z M814.7,94c0,1.4,0.3,2.4,0.9,3
			c0.6,0.7,1.5,1,2.7,1c0.9,0,1.7-0.1,2.4-0.4s1.3-0.7,1.8-1.2s0.9-1.2,1.2-1.9c0.3-0.7,0.4-1.6,0.4-2.5v-3.5l-2.8,0.1
			c-1.2,0.1-2.3,0.2-3.1,0.5c-0.8,0.2-1.5,0.6-2,1s-0.9,1-1.1,1.6C814.8,92.4,814.7,93.1,814.7,94z"/>
		<path class="st6" d="M844.2,98.4c0.5,0,1,0,1.4-0.1s0.9-0.1,1.3-0.2v1.9c-0.2,0.1-0.4,0.2-0.7,0.3c-0.3,0.1-0.6,0.2-1,0.2
			s-0.7,0.1-1.1,0.1s-0.7,0.1-1.1,0.1c-1.1,0-2-0.1-2.8-0.3s-1.4-0.6-2-1.1c-0.5-0.5-0.9-1.2-1.1-2.1s-0.4-1.9-0.4-3.2V79.5h-3.3
			v-1.7c0.5,0,1.1-0.1,1.7-0.3s1.2-0.6,1.7-1.1s0.9-1.2,1.2-1.9c0.3-0.7,0.6-1.7,0.8-2.8h2V77h5.7v2.5h-5.7v14.6
			c0,1.5,0.3,2.6,0.9,3.3C842.4,98.1,843.2,98.4,844.2,98.4z"/>
		<path class="st6" d="M860.5,98.5v1.8h-11.7v-1.8h0.3c0.5,0,1,0,1.4-0.1s0.8-0.2,1.1-0.4c0.3-0.2,0.6-0.5,0.8-0.9s0.3-1,0.3-1.6V72
			c0-0.6-0.1-1.1-0.3-1.5s-0.4-0.7-0.8-0.9s-0.7-0.4-1.1-0.4c-0.4-0.1-0.9-0.1-1.4-0.1h-0.3v-1.8h8v9.5c0,0.4,0,0.8,0,1.2
			c0,0.4,0,0.8-0.1,1.2c0,0.4-0.1,0.8-0.1,1.3h0.2c1.3-2.6,3.4-3.9,6.4-3.9c1.2,0,2.3,0.2,3.3,0.5s1.8,0.8,2.4,1.5
			c0.7,0.7,1.1,1.6,1.5,2.6c0.3,1.1,0.5,2.4,0.5,3.8v10.3c0,0.7,0.1,1.2,0.3,1.6s0.4,0.7,0.7,0.9c0.3,0.2,0.7,0.4,1.1,0.4
			c0.4,0.1,0.9,0.1,1.3,0.1h0.1v1.8h-7.5v-15c0-0.9-0.1-1.8-0.3-2.5s-0.4-1.4-0.8-1.9s-0.9-0.9-1.5-1.2c-0.6-0.3-1.4-0.4-2.2-0.4
			c-0.9,0-1.7,0.2-2.3,0.5c-0.7,0.3-1.2,0.8-1.6,1.4s-0.8,1.4-1,2.2c-0.2,0.9-0.3,1.8-0.3,2.9v9.2c0,0.6,0.1,1.1,0.3,1.5
			s0.4,0.7,0.8,0.9s0.7,0.3,1.1,0.4c0.4,0.1,0.9,0.1,1.4,0.1l0,0L860.5,98.5L860.5,98.5z"/>
		<path class="st6" d="M888.1,100.7c-1.6,0-3-0.3-4.2-0.8c-1.3-0.5-2.3-1.3-3.2-2.3s-1.5-2.3-2-3.7c-0.5-1.5-0.7-3.2-0.7-5
			c0-4.1,0.8-7.1,2.5-9.2c1.7-2,4-3.1,7.1-3.1c1.4,0,2.7,0.2,3.8,0.7c1.1,0.4,2.1,1.1,2.8,2c0.8,0.9,1.4,2,1.8,3.2
			c0.4,1.3,0.6,2.8,0.6,4.5v2h-14.5c0,1.6,0.2,2.9,0.5,4.1c0.3,1.1,0.7,2.1,1.3,2.8c0.5,0.7,1.2,1.3,2,1.6c0.8,0.3,1.7,0.5,2.7,0.5
			c0.8,0,1.4-0.1,2.1-0.3c0.6-0.2,1.2-0.4,1.7-0.7c0.5-0.3,1-0.6,1.4-1s0.7-0.7,1-1.1c0.2,0.1,0.4,0.3,0.6,0.5s0.3,0.6,0.3,1
			s-0.2,0.9-0.5,1.4s-0.8,1-1.4,1.4c-0.6,0.4-1.4,0.8-2.4,1.1C890.5,100.6,889.3,100.7,888.1,100.7z M887.5,78.9
			c-1.6,0-2.9,0.7-3.7,2c-0.9,1.3-1.4,3.2-1.5,5.7h10c0-1.1-0.1-2.2-0.3-3.1s-0.4-1.8-0.8-2.4c-0.4-0.7-0.9-1.2-1.5-1.6
			C889.1,79.1,888.4,78.9,887.5,78.9z"/>
		<path class="st6" d="M920.8,95.5c0,0.6,0.1,1.1,0.3,1.5s0.4,0.7,0.8,0.9s0.7,0.3,1.1,0.4c0.4,0.1,0.9,0.1,1.4,0.1h0.4v1.8h-7.4
			l-0.5-3.9h-0.2c-0.3,0.7-0.7,1.3-1.1,1.8s-0.9,1-1.4,1.4s-1.1,0.7-1.8,0.9c-0.7,0.2-1.4,0.3-2.3,0.3c-1.4,0-2.7-0.2-3.8-0.7
			s-2-1.2-2.8-2.2s-1.3-2.2-1.7-3.7s-0.6-3.3-0.6-5.4s0.2-3.9,0.6-5.4c0.4-1.5,0.9-2.8,1.7-3.8c0.7-1,1.7-1.7,2.8-2.2
			s2.4-0.7,3.8-0.7c0.8,0,1.6,0.1,2.3,0.3s1.3,0.4,1.8,0.8c0.5,0.3,1,0.7,1.5,1.2c0.4,0.5,0.8,1,1.1,1.5h0.3c0-0.7-0.1-1.4-0.1-2
			c0-0.5-0.1-1.1-0.1-1.6s0-0.9,0-1.2V72c0-0.6-0.1-1.1-0.3-1.5s-0.4-0.7-0.8-0.9s-0.7-0.4-1.1-0.4s-0.9-0.1-1.4-0.1h-0.4v-1.8h8
			L920.8,95.5L920.8,95.5z M910.8,97.9c1.1,0,2.1-0.2,2.8-0.6c0.8-0.4,1.4-0.9,1.8-1.7c0.5-0.8,0.8-1.7,1-2.9
			c0.2-1.2,0.3-2.5,0.3-4.1c0-1.5-0.1-2.8-0.3-4s-0.5-2.1-1-2.9s-1.1-1.4-1.8-1.8s-1.7-0.6-2.9-0.6c-0.9,0-1.8,0.2-2.4,0.6
			s-1.2,1-1.7,1.8c-0.4,0.8-0.7,1.8-0.9,2.9c-0.2,1.2-0.3,2.5-0.3,4c0,3.1,0.4,5.4,1.3,6.9C907.5,97.2,908.9,97.9,910.8,97.9z"/>
		<path class="st6" d="M939.5,100.3H927v-1.8h0.1c0.5,0,1,0,1.4-0.1s0.8-0.2,1.1-0.4c0.3-0.2,0.6-0.5,0.8-0.9s0.3-1,0.3-1.6V81.8
			c0-0.6-0.1-1.1-0.3-1.5s-0.4-0.7-0.8-0.9c-0.3-0.2-0.7-0.4-1.1-0.4c-0.4-0.1-0.9-0.1-1.4-0.1H927V77h6.7l0.8,4.3h0.2
			c0.3-0.6,0.6-1.3,0.9-1.8c0.3-0.6,0.7-1.1,1.1-1.5s1-0.8,1.6-1s1.4-0.4,2.4-0.4c1.6,0,2.8,0.3,3.5,0.8c0.8,0.6,1.2,1.3,1.2,2.3
			c0,0.5-0.1,0.9-0.2,1.3s-0.4,0.7-0.7,1s-0.7,0.5-1.3,0.6c-0.5,0.1-1.1,0.2-1.9,0.2c0-1.2-0.2-2.1-0.5-2.6s-0.9-0.8-1.8-0.8
			c-0.5,0-1,0.2-1.4,0.5s-0.8,0.7-1.1,1.2s-0.6,1.1-0.8,1.7c-0.2,0.7-0.4,1.3-0.5,2s-0.2,1.4-0.3,2s-0.1,1.3-0.1,1.8v6.8
			c0,0.6,0.1,1.1,0.3,1.5s0.4,0.7,0.8,0.9c0.3,0.2,0.7,0.3,1.1,0.4c0.4,0.1,0.9,0.1,1.4,0.1h1.2v2H939.5z"/>
		<path class="st6" d="M956.7,78.7c-0.8,0-1.5,0.1-2,0.3c-0.5,0.2-0.9,0.6-1.2,1s-0.5,0.9-0.6,1.5s-0.1,1.2-0.1,1.9
			c-1.2,0-2.1-0.2-2.7-0.6c-0.6-0.4-0.9-1.1-0.9-2.1c0-0.7,0.2-1.4,0.6-1.9c0.4-0.5,1-1,1.7-1.3s1.5-0.6,2.5-0.7
			c0.9-0.2,2-0.2,3-0.2c1.3,0,2.5,0.1,3.5,0.4s1.8,0.7,2.5,1.3c0.7,0.6,1.2,1.4,1.5,2.3c0.3,1,0.5,2.1,0.5,3.5v11.3
			c0,0.6,0,1.1,0.1,1.5s0.3,0.7,0.5,1s0.5,0.4,0.8,0.5s0.8,0.1,1.2,0.1h0.1v1.8h-5.9l-0.7-3.7h-0.4c-0.5,0.6-0.9,1.2-1.3,1.7
			c-0.4,0.5-0.9,0.9-1.4,1.3s-1.1,0.7-1.7,0.9c-0.6,0.2-1.4,0.3-2.3,0.3c-1,0-1.9-0.1-2.7-0.4s-1.5-0.7-2.1-1.3
			c-0.6-0.6-1.1-1.3-1.4-2.2c-0.3-0.9-0.5-1.9-0.5-3.1c0-2.3,0.8-4,2.5-5.1c1.6-1.1,4.1-1.7,7.4-1.8l3.6-0.1v-2.6
			c0-0.8,0-1.5-0.1-2.2s-0.3-1.2-0.6-1.7s-0.7-0.8-1.2-1.1C958.3,78.9,957.6,78.7,956.7,78.7z M951.5,94c0,1.4,0.3,2.4,0.9,3
			c0.6,0.7,1.5,1,2.7,1c0.9,0,1.7-0.1,2.4-0.4s1.3-0.7,1.8-1.2s0.9-1.2,1.2-1.9c0.3-0.7,0.4-1.6,0.4-2.5v-3.5l-2.8,0.1
			c-1.2,0.1-2.3,0.2-3.1,0.5c-0.8,0.2-1.5,0.6-2,1s-0.9,1-1.1,1.6C951.6,92.4,951.5,93.1,951.5,94z"/>
		<path class="st6" d="M970.7,98.5c0.5,0,1,0,1.4-0.1s0.8-0.2,1.1-0.4c0.3-0.2,0.6-0.5,0.8-0.9s0.3-1,0.3-1.6V72
			c0-0.6-0.1-1.1-0.3-1.5s-0.4-0.7-0.8-0.9s-0.7-0.4-1.1-0.4c-0.4-0.1-0.9-0.1-1.4-0.1h-0.6v-1.8h8.2v28.1c0,0.7,0.1,1.2,0.3,1.6
			s0.4,0.7,0.8,0.9c0.3,0.2,0.7,0.4,1.1,0.4c0.4,0.1,0.9,0.1,1.4,0.1h0.6v1.8h-12.4v-1.8h0.6L970.7,98.5L970.7,98.5z"/>
	</g>
</g>
<g>
	<g class="st5">
		<path class="st6" d="M369.1,183.7c1.5,0,2.8,0.1,3.9,0.4c1.1,0.2,2,0.6,2.7,1s1.3,1,1.6,1.5c0.4,0.6,0.5,1.2,0.5,1.9
			c0,0.5-0.1,0.9-0.3,1.3c-0.2,0.4-0.5,0.7-0.8,1s-0.7,0.5-1.2,0.6s-1,0.2-1.5,0.2c0-0.7-0.1-1.3-0.3-2s-0.5-1.3-0.9-1.8
			s-0.9-1-1.6-1.3s-1.4-0.5-2.4-0.5c-1.6,0-3,0.3-4.2,0.9c-1.1,0.6-2.1,1.5-2.8,2.6s-1.2,2.6-1.6,4.3s-0.5,3.6-0.5,5.8
			c0,1.9,0.2,3.7,0.5,5.3s0.9,3,1.6,4.1c0.7,1.2,1.7,2,2.8,2.7c1.1,0.6,2.5,1,4.1,1c1.1,0,2-0.1,2.8-0.3s1.5-0.5,2.2-0.8
			c0.6-0.3,1.2-0.7,1.6-1.2s0.9-0.9,1.3-1.4c0.2,0.2,0.4,0.4,0.6,0.6c0.2,0.3,0.2,0.6,0.2,1.1c0,0.6-0.2,1.1-0.6,1.7
			c-0.4,0.6-0.9,1.1-1.7,1.6s-1.7,0.9-2.9,1.2c-1.2,0.3-2.6,0.5-4.2,0.5c-2.2,0-4.1-0.4-5.7-1.1c-1.6-0.8-3-1.8-4.1-3.2
			s-1.9-3.1-2.5-5s-0.8-4.1-0.8-6.5c0-2.3,0.3-4.5,0.9-6.4c0.6-2,1.5-3.6,2.6-5c1.2-1.4,2.6-2.5,4.4-3.3S366.8,183.7,369.1,183.7z"
			/>
		<path class="st6" d="M391,193.6c-0.8,0-1.5,0.1-2,0.3s-0.9,0.6-1.2,1c-0.3,0.4-0.5,0.9-0.6,1.5s-0.1,1.2-0.1,1.9
			c-1.2,0-2.1-0.2-2.7-0.6c-0.6-0.4-0.9-1.1-0.9-2.1c0-0.7,0.2-1.4,0.6-1.9s1-1,1.7-1.3s1.5-0.6,2.5-0.7c0.9-0.2,2-0.2,3-0.2
			c1.3,0,2.5,0.1,3.5,0.4s1.8,0.7,2.5,1.3s1.2,1.4,1.5,2.3c0.3,1,0.5,2.1,0.5,3.5v11.3c0,0.6,0,1.1,0.1,1.5s0.3,0.7,0.5,1
			s0.5,0.4,0.8,0.5s0.8,0.1,1.2,0.1h0.1v1.8h-5.9l-0.7-3.7H395c-0.5,0.6-0.9,1.2-1.3,1.7s-0.9,0.9-1.4,1.3c-0.5,0.4-1.1,0.7-1.7,0.9
			s-1.4,0.3-2.3,0.3c-1,0-1.9-0.1-2.7-0.4s-1.5-0.7-2.1-1.3s-1.1-1.3-1.4-2.2s-0.5-1.9-0.5-3.1c0-2.3,0.8-4,2.5-5.1s4.1-1.7,7.4-1.8
			l3.6-0.1v-2.8c0-0.8,0-1.5-0.1-2.2s-0.3-1.2-0.6-1.7s-0.7-0.8-1.2-1.1C392.6,193.7,391.9,193.6,391,193.6z M385.7,208.8
			c0,1.4,0.3,2.4,0.9,3c0.6,0.7,1.5,1,2.7,1c0.9,0,1.7-0.1,2.4-0.4c0.7-0.3,1.3-0.7,1.8-1.2s0.9-1.2,1.2-1.9
			c0.3-0.7,0.4-1.6,0.4-2.5v-3.5l-2.8,0.1c-1.2,0.1-2.3,0.2-3.1,0.5c-0.8,0.2-1.5,0.6-2,1s-0.9,1-1.1,1.6S385.7,208,385.7,208.8z"/>
		<path class="st6" d="M415.3,213.2c0.5,0,1,0,1.4-0.1s0.9-0.1,1.3-0.2v1.9c-0.2,0.1-0.4,0.2-0.7,0.3s-0.6,0.2-1,0.2
			c-0.3,0.1-0.7,0.1-1.1,0.1s-0.7,0.1-1.1,0.1c-1.1,0-2.1-0.1-2.8-0.3c-0.8-0.2-1.4-0.6-2-1.1c-0.5-0.5-0.9-1.2-1.1-2.1
			c-0.2-0.9-0.4-1.9-0.4-3.2v-14.5h-3.3v-1.7c0.5,0,1.1-0.1,1.7-0.3s1.2-0.6,1.7-1.1s0.9-1.2,1.2-1.9c0.3-0.7,0.6-1.7,0.8-2.8h2v5.3
			h5.7v2.5h-5.7v14.6c0,1.5,0.3,2.6,0.9,3.3C413.5,212.9,414.3,213.2,415.3,213.2z"/>
		<path class="st6" d="M431.6,213.3v1.8h-11.7v-1.8h0.3c0.5,0,1,0,1.4-0.1s0.8-0.2,1.1-0.4c0.3-0.2,0.6-0.5,0.8-0.9s0.3-1,0.3-1.6
			v-23.4c0-0.6-0.1-1.1-0.3-1.5s-0.4-0.7-0.8-0.9c-0.3-0.2-0.7-0.4-1.1-0.4c-0.4-0.1-0.9-0.1-1.4-0.1h-0.3v-1.8h8v9.5
			c0,0.4,0,0.8,0,1.2s0,0.8-0.1,1.2c0,0.4-0.1,0.8-0.1,1.3h0.2c1.3-2.6,3.4-3.9,6.4-3.9c1.2,0,2.3,0.2,3.3,0.5s1.8,0.8,2.4,1.5
			c0.7,0.7,1.1,1.6,1.5,2.6c0.3,1.1,0.5,2.4,0.5,3.8v10.3c0,0.7,0.1,1.2,0.3,1.6c0.2,0.4,0.4,0.7,0.7,0.9c0.3,0.2,0.7,0.4,1.1,0.4
			c0.4,0.1,0.9,0.1,1.3,0.1h0.1v1.8h-7.6v-15c0-0.9-0.1-1.8-0.3-2.5c-0.2-0.7-0.4-1.4-0.8-1.9s-0.9-0.9-1.5-1.2s-1.4-0.4-2.2-0.4
			c-0.9,0-1.7,0.2-2.3,0.5c-0.7,0.3-1.2,0.8-1.6,1.4s-0.8,1.4-1,2.2c-0.2,0.9-0.3,1.8-0.3,2.9v9.2c0,0.6,0.1,1.1,0.3,1.5
			c0.2,0.4,0.4,0.7,0.8,0.9s0.7,0.3,1.1,0.4c0.4,0.1,0.9,0.1,1.4,0.1h0.1L431.6,213.3L431.6,213.3z"/>
		<path class="st6" d="M459.1,215.5c-1.6,0-3-0.3-4.2-0.8s-2.3-1.3-3.2-2.3c-0.9-1-1.5-2.3-2-3.7s-0.7-3.2-0.7-5
			c0-4.1,0.8-7.1,2.5-9.2c1.7-2,4-3.1,7.1-3.1c1.4,0,2.7,0.2,3.8,0.7c1.1,0.4,2.1,1.1,2.8,2c0.8,0.9,1.4,2,1.8,3.2
			c0.4,1.3,0.6,2.8,0.6,4.5v2h-14.5c0,1.6,0.2,2.9,0.5,4.1c0.3,1.1,0.7,2.1,1.3,2.8c0.5,0.7,1.2,1.3,2,1.6s1.7,0.5,2.7,0.5
			c0.7,0,1.4-0.1,2.1-0.3c0.6-0.2,1.2-0.4,1.7-0.7s1-0.6,1.4-1s0.7-0.7,1-1.1c0.2,0.1,0.4,0.3,0.6,0.5s0.3,0.6,0.3,1
			s-0.2,0.9-0.5,1.4s-0.8,1-1.4,1.4s-1.4,0.8-2.4,1.1S460.4,215.5,459.1,215.5z M458.6,193.7c-1.6,0-2.9,0.7-3.7,2
			c-0.9,1.3-1.4,3.2-1.5,5.7h10c0-1.1-0.1-2.2-0.3-3.1c-0.2-0.9-0.4-1.8-0.8-2.4s-0.9-1.2-1.5-1.6
			C460.2,193.9,459.5,193.7,458.6,193.7z M456.7,188.2c0.3-0.4,0.7-0.9,1-1.4s0.7-1.1,1-1.7c0.3-0.6,0.7-1.1,1-1.7
			c0.3-0.6,0.6-1.1,0.8-1.6h4.6v0.4c-0.3,0.4-0.7,0.9-1.2,1.4c-0.5,0.6-1.1,1.2-1.7,1.8s-1.3,1.2-2,1.8s-1.3,1.1-1.9,1.5h-1.7v-0.5
			H456.7z"/>
		<path class="st6" d="M491.9,210.3c0,0.6,0.1,1.1,0.3,1.5c0.2,0.4,0.4,0.7,0.8,0.9s0.7,0.3,1.1,0.4c0.4,0.1,0.9,0.1,1.4,0.1h0.4
			v1.8h-7.4l-0.5-3.9h-0.2c-0.3,0.7-0.7,1.3-1.1,1.8s-0.9,1-1.4,1.4s-1.1,0.7-1.8,0.9c-0.7,0.2-1.4,0.3-2.3,0.3
			c-1.4,0-2.7-0.2-3.8-0.7s-2-1.2-2.8-2.2c-0.7-1-1.3-2.2-1.7-3.7s-0.6-3.3-0.6-5.4c0-2.1,0.2-3.9,0.6-5.4s0.9-2.8,1.7-3.8
			c0.7-1,1.7-1.7,2.8-2.2s2.4-0.7,3.8-0.7c0.8,0,1.6,0.1,2.3,0.3s1.3,0.4,1.8,0.8c0.5,0.3,1,0.7,1.5,1.2c0.4,0.5,0.8,1,1.1,1.5h0.3
			c0-0.7-0.1-1.4-0.1-2c0-0.5-0.1-1.1-0.1-1.6s0-0.9,0-1.2v-3.5c0-0.6-0.1-1.1-0.3-1.5s-0.4-0.7-0.8-0.9s-0.7-0.4-1.1-0.4
			s-0.9-0.1-1.4-0.1H484v-1.8h8L491.9,210.3L491.9,210.3z M481.9,212.8c1.1,0,2.1-0.2,2.8-0.6s1.4-0.9,1.8-1.7
			c0.5-0.8,0.8-1.7,1-2.9s0.3-2.5,0.3-4.1c0-1.5-0.1-2.8-0.3-4s-0.5-2.1-1-2.9c-0.5-0.8-1.1-1.4-1.8-1.8c-0.8-0.4-1.7-0.6-2.9-0.6
			c-0.9,0-1.8,0.2-2.4,0.6s-1.2,1-1.7,1.8c-0.4,0.8-0.7,1.8-0.9,2.9c-0.2,1.2-0.3,2.5-0.3,4c0,3.1,0.4,5.4,1.3,6.9
			C478.6,212,480,212.8,481.9,212.8z"/>
		<path class="st6" d="M510.6,215.1h-12.5v-1.8h0.1c0.5,0,1,0,1.4-0.1s0.8-0.2,1.1-0.4c0.3-0.2,0.6-0.5,0.8-0.9
			c0.2-0.4,0.3-1,0.3-1.6v-13.6c0-0.6-0.1-1.1-0.3-1.5c-0.2-0.4-0.4-0.7-0.8-0.9c-0.3-0.2-0.7-0.4-1.1-0.4c-0.4-0.1-0.9-0.1-1.4-0.1
			h-0.1V192h6.7l0.8,4.3h0.2c0.3-0.6,0.6-1.3,0.9-1.8c0.3-0.6,0.7-1.1,1.1-1.5s1-0.8,1.6-1s1.4-0.4,2.4-0.4c1.6,0,2.8,0.3,3.5,0.8
			c0.8,0.6,1.2,1.3,1.2,2.3c0,0.5-0.1,0.9-0.2,1.3c-0.1,0.4-0.4,0.7-0.7,1s-0.7,0.5-1.3,0.6s-1.1,0.2-1.9,0.2c0-1.2-0.2-2.1-0.5-2.6
			s-0.9-0.8-1.8-0.8c-0.5,0-1,0.2-1.4,0.5s-0.8,0.7-1.1,1.2s-0.6,1.1-0.8,1.7c-0.2,0.7-0.4,1.3-0.5,2s-0.2,1.4-0.3,2
			c-0.1,0.7-0.1,1.3-0.1,1.8v6.8c0,0.6,0.1,1.1,0.3,1.5c0.2,0.4,0.4,0.7,0.8,0.9s0.7,0.3,1.1,0.4c0.4,0.1,0.9,0.1,1.4,0.1h1.2v1.8
			H510.6z"/>
		<path class="st6" d="M527.8,193.6c-0.8,0-1.5,0.1-2,0.3s-0.9,0.6-1.2,1s-0.5,0.9-0.6,1.5s-0.1,1.2-0.1,1.9c-1.2,0-2.1-0.2-2.7-0.6
			c-0.6-0.4-0.9-1.1-0.9-2.1c0-0.7,0.2-1.4,0.6-1.9c0.4-0.5,1-1,1.7-1.3s1.5-0.6,2.5-0.7c0.9-0.2,2-0.2,3-0.2c1.3,0,2.5,0.1,3.5,0.4
			c1,0.3,1.8,0.7,2.5,1.3s1.2,1.4,1.5,2.3c0.3,1,0.5,2.1,0.5,3.5v11.3c0,0.6,0,1.1,0.1,1.5s0.3,0.7,0.5,1s0.5,0.4,0.8,0.5
			s0.8,0.1,1.2,0.1h0.1v1.8h-5.9l-0.7-3.7h-0.4c-0.5,0.6-0.9,1.2-1.3,1.7c-0.4,0.5-0.9,0.9-1.4,1.3c-0.5,0.4-1.1,0.7-1.7,0.9
			c-0.6,0.2-1.4,0.3-2.3,0.3c-1,0-1.9-0.1-2.7-0.4c-0.8-0.3-1.5-0.7-2.1-1.3s-1.1-1.3-1.4-2.2s-0.5-1.9-0.5-3.1c0-2.3,0.8-4,2.5-5.1
			c1.6-1.1,4.1-1.7,7.4-1.8l3.6-0.1v-2.8c0-0.8,0-1.5-0.1-2.2s-0.3-1.2-0.6-1.7s-0.7-0.8-1.2-1.1
			C529.4,193.7,528.7,193.6,527.8,193.6z M522.6,208.8c0,1.4,0.3,2.4,0.9,3c0.6,0.7,1.5,1,2.7,1c0.9,0,1.7-0.1,2.4-0.4
			c0.7-0.3,1.3-0.7,1.8-1.2s0.9-1.2,1.2-1.9s0.4-1.6,0.4-2.5v-3.5l-2.8,0.1c-1.2,0.1-2.3,0.2-3.1,0.5c-0.8,0.2-1.5,0.6-2,1
			s-0.9,1-1.1,1.6C522.7,207.2,522.6,208,522.6,208.8z"/>
		<path class="st6" d="M541.8,213.3c0.5,0,1,0,1.4-0.1s0.8-0.2,1.1-0.4s0.6-0.5,0.8-0.9s0.3-1,0.3-1.6v-23.4c0-0.6-0.1-1.1-0.3-1.5
			s-0.4-0.7-0.8-0.9s-0.7-0.4-1.1-0.4s-0.9-0.1-1.4-0.1h-0.6v-1.8h8.2v28.1c0,0.7,0.1,1.2,0.3,1.6c0.2,0.4,0.4,0.7,0.8,0.9
			c0.3,0.2,0.7,0.4,1.1,0.4c0.4,0.1,0.9,0.1,1.4,0.1h0.6v1.8h-12.3v-1.8L541.8,213.3L541.8,213.3z"/>
		<path class="st6" d="M566.6,215.5c-1.6,0-3-0.3-4.2-0.8c-1.3-0.5-2.3-1.3-3.2-2.3s-1.5-2.3-2-3.7c-0.5-1.5-0.7-3.2-0.7-5
			c0-4.1,0.8-7.1,2.5-9.2c1.7-2,4-3.1,7.1-3.1c1.4,0,2.7,0.2,3.8,0.7c1.1,0.4,2.1,1.1,2.8,2c0.8,0.9,1.4,2,1.8,3.2
			c0.4,1.3,0.6,2.8,0.6,4.5v2h-14.5c0,1.6,0.2,2.9,0.5,4.1c0.3,1.1,0.7,2.1,1.3,2.8c0.5,0.7,1.2,1.3,2,1.6s1.7,0.5,2.7,0.5
			c0.7,0,1.4-0.1,2.1-0.3c0.6-0.2,1.2-0.4,1.7-0.7s1-0.6,1.4-1s0.7-0.7,1-1.1c0.2,0.1,0.4,0.3,0.6,0.5s0.3,0.6,0.3,1
			s-0.2,0.9-0.5,1.4s-0.8,1-1.4,1.4s-1.4,0.8-2.4,1.1C569,215.4,567.9,215.5,566.6,215.5z M566,193.7c-1.6,0-2.9,0.7-3.7,2
			c-0.9,1.3-1.4,3.2-1.5,5.7h10c0-1.1-0.1-2.2-0.3-3.1s-0.4-1.8-0.8-2.4c-0.4-0.7-0.9-1.2-1.5-1.6
			C567.7,193.9,566.9,193.7,566,193.7z"/>
		<path class="st6" d="M618.4,199.6c0,2.4-0.3,4.6-0.9,6.5c-0.6,2-1.5,3.6-2.6,5c-1.2,1.4-2.6,2.5-4.3,3.2c-1.7,0.8-3.6,1.1-5.8,1.1
			c-2.3,0-4.3-0.4-6-1.1c-1.7-0.8-3.1-1.8-4.3-3.2c-1.1-1.4-2-3.1-2.5-5.1c-0.6-2-0.8-4.2-0.8-6.6c0-2.4,0.3-4.6,0.8-6.5
			c0.6-2,1.4-3.6,2.5-5s2.6-2.5,4.3-3.2c1.7-0.8,3.7-1.1,6-1.1c2.2,0,4.1,0.4,5.8,1.1c1.7,0.8,3.1,1.8,4.3,3.2s2,3.1,2.6,5
			C618.1,195,618.4,197.1,618.4,199.6z M595.9,199.6c0,2.1,0.2,4.1,0.5,5.8s0.8,3.1,1.5,4.3s1.6,2.1,2.7,2.7
			c1.1,0.6,2.5,0.9,4.1,0.9s3-0.3,4.1-0.9c1.1-0.6,2-1.5,2.7-2.7s1.2-2.6,1.5-4.3s0.5-3.6,0.5-5.8s-0.2-4.1-0.5-5.8
			s-0.8-3.1-1.5-4.3s-1.6-2-2.7-2.7c-1.1-0.6-2.5-0.9-4.1-0.9s-3,0.3-4.1,0.9c-1.1,0.6-2.1,1.5-2.8,2.7s-1.2,2.6-1.5,4.3
			C596,195.5,595.9,197.4,595.9,199.6z"/>
		<path class="st6" d="M634.8,215.1h-12.5v-1.8h0.1c0.5,0,1,0,1.4-0.1s0.8-0.2,1.1-0.4s0.6-0.5,0.8-0.9s0.3-1,0.3-1.6v-13.6
			c0-0.6-0.1-1.1-0.3-1.5s-0.4-0.7-0.8-0.9c-0.3-0.2-0.7-0.4-1.1-0.4c-0.4-0.1-0.9-0.1-1.4-0.1h-0.1V192h6.7l0.8,4.3h0.2
			c0.3-0.6,0.6-1.3,0.9-1.8c0.3-0.6,0.7-1.1,1.1-1.5c0.4-0.4,1-0.8,1.6-1s1.4-0.4,2.4-0.4c1.6,0,2.8,0.3,3.5,0.8
			c0.8,0.6,1.2,1.3,1.2,2.3c0,0.5-0.1,0.9-0.2,1.3s-0.4,0.7-0.7,1s-0.7,0.5-1.3,0.6c-0.5,0.1-1.1,0.2-1.9,0.2c0-1.2-0.2-2.1-0.5-2.6
			s-0.9-0.8-1.8-0.8c-0.5,0-1,0.2-1.4,0.5s-0.8,0.7-1.1,1.2s-0.6,1.1-0.8,1.7c-0.2,0.7-0.4,1.3-0.5,2s-0.2,1.4-0.3,2
			s-0.1,1.3-0.1,1.8v6.8c0,0.6,0.1,1.1,0.3,1.5s0.4,0.7,0.8,0.9s0.7,0.3,1.1,0.4c0.4,0.1,0.9,0.1,1.4,0.1h1.2v1.8H634.8z"/>
		<path class="st6" d="M652.8,213.2c0.5,0,1,0,1.4-0.1s0.9-0.1,1.3-0.2v1.9c-0.2,0.1-0.4,0.2-0.7,0.3s-0.6,0.2-1,0.2
			s-0.7,0.1-1.1,0.1s-0.7,0.1-1.1,0.1c-1.1,0-2.1-0.1-2.8-0.3s-1.4-0.6-2-1.1c-0.5-0.5-0.9-1.2-1.1-2.1s-0.4-1.9-0.4-3.2v-14.5H642
			v-1.7c0.5,0,1.1-0.1,1.7-0.3s1.2-0.6,1.7-1.1s0.9-1.2,1.2-1.9s0.6-1.7,0.8-2.8h2v5.3h5.7v2.5h-5.7v14.6c0,1.5,0.3,2.6,0.9,3.3
			C651,212.9,651.8,213.2,652.8,213.2z"/>
		<path class="st6" d="M669.1,213.3v1.8h-11.7v-1.8h0.3c0.5,0,1,0,1.4-0.1s0.8-0.2,1.1-0.4s0.6-0.5,0.8-0.9s0.3-1,0.3-1.6v-23.4
			c0-0.6-0.1-1.1-0.3-1.5s-0.4-0.7-0.8-0.9s-0.7-0.4-1.1-0.4c-0.4-0.1-0.9-0.1-1.4-0.1h-0.3v-1.8h8v9.5c0,0.4,0,0.8,0,1.2
			s0,0.8-0.1,1.2c0,0.4-0.1,0.8-0.1,1.3h0.2c1.3-2.6,3.4-3.9,6.4-3.9c1.2,0,2.3,0.2,3.3,0.5s1.8,0.8,2.4,1.5
			c0.7,0.7,1.1,1.6,1.5,2.6c0.3,1.1,0.5,2.4,0.5,3.8v10.3c0,0.7,0.1,1.2,0.3,1.6c0.2,0.4,0.4,0.7,0.7,0.9s0.7,0.4,1.1,0.4
			c0.4,0.1,0.9,0.1,1.3,0.1h0.1v1.8h-7.5v-15c0-0.9-0.1-1.8-0.3-2.5s-0.4-1.4-0.8-1.9s-0.9-0.9-1.5-1.2s-1.4-0.4-2.2-0.4
			c-0.9,0-1.7,0.2-2.3,0.5c-0.7,0.3-1.2,0.8-1.6,1.4s-0.8,1.4-1,2.2c-0.2,0.9-0.3,1.8-0.3,2.9v9.2c0,0.6,0.1,1.1,0.3,1.5
			s0.4,0.7,0.8,0.9s0.7,0.3,1.1,0.4c0.4,0.1,0.9,0.1,1.4,0.1l0,0L669.1,213.3L669.1,213.3z"/>
		<path class="st6" d="M706.9,203.4c0,4.1-0.9,7.1-2.6,9.1c-1.7,2-4.3,3-7.6,3c-1.6,0-3-0.2-4.2-0.7s-2.3-1.2-3.2-2.2
			s-1.5-2.3-2-3.8s-0.7-3.3-0.7-5.3c0-4.1,0.9-7.1,2.6-9.1s4.3-3,7.6-3c1.6,0,3,0.2,4.2,0.7s2.3,1.2,3.2,2.2s1.5,2.2,2,3.8
			C706.6,199.6,706.9,201.4,706.9,203.4z M690.8,203.4c0,1.6,0.1,3,0.3,4.3c0.2,1.2,0.6,2.3,1,3.1s1.1,1.5,1.8,1.9
			c0.8,0.4,1.7,0.6,2.8,0.6s2-0.2,2.8-0.6c0.8-0.4,1.4-1,1.8-1.9s0.8-1.9,1-3.1c0.2-1.2,0.3-2.7,0.3-4.3s-0.1-3-0.3-4.2
			s-0.6-2.2-1-3c-0.5-0.8-1.1-1.4-1.8-1.8c-0.8-0.4-1.7-0.6-2.8-0.6s-2,0.2-2.8,0.6c-0.7,0.4-1.4,1-1.8,1.8c-0.5,0.8-0.8,1.8-1,3
			S690.8,201.8,690.8,203.4z"/>
		<path class="st6" d="M731.2,210.3c0,0.6,0.1,1.1,0.3,1.5s0.4,0.7,0.8,0.9s0.7,0.3,1.1,0.4c0.4,0.1,0.9,0.1,1.4,0.1h0.4v1.8h-7.4
			l-0.5-3.9h-0.2c-0.3,0.7-0.7,1.3-1.1,1.8s-0.9,1-1.4,1.4s-1.1,0.7-1.8,0.9s-1.4,0.3-2.3,0.3c-1.4,0-2.7-0.2-3.8-0.7
			s-2-1.2-2.8-2.2s-1.3-2.2-1.7-3.7s-0.6-3.3-0.6-5.4c0-2.1,0.2-3.9,0.6-5.4c0.4-1.5,0.9-2.8,1.7-3.8c0.7-1,1.7-1.7,2.8-2.2
			s2.4-0.7,3.8-0.7c0.8,0,1.6,0.1,2.3,0.3s1.3,0.4,1.8,0.8c0.5,0.3,1,0.7,1.5,1.2c0.4,0.5,0.8,1,1.1,1.5h0.3c0-0.7-0.1-1.4-0.1-2
			c0-0.5-0.1-1.1-0.1-1.6s0-0.9,0-1.2v-3.5c0-0.6-0.1-1.1-0.3-1.5s-0.4-0.7-0.8-0.9s-0.7-0.4-1.1-0.4s-0.9-0.1-1.4-0.1h-0.4v-1.8h8
			L731.2,210.3L731.2,210.3z M721.2,212.8c1.1,0,2.1-0.2,2.8-0.6c0.8-0.4,1.4-0.9,1.8-1.7c0.5-0.8,0.8-1.7,1-2.9s0.3-2.5,0.3-4.1
			c0-1.5-0.1-2.8-0.3-4s-0.5-2.1-1-2.9c-0.5-0.8-1.1-1.4-1.8-1.8s-1.7-0.6-2.9-0.6c-0.9,0-1.8,0.2-2.4,0.6s-1.2,1-1.7,1.8
			c-0.4,0.8-0.7,1.8-0.9,2.9c-0.2,1.2-0.3,2.5-0.3,4c0,3.1,0.4,5.4,1.3,6.9C717.9,212,719.3,212.8,721.2,212.8z"/>
		<path class="st6" d="M758.6,203.4c0,4.1-0.9,7.1-2.6,9.1c-1.7,2-4.3,3-7.6,3c-1.6,0-3-0.2-4.2-0.7s-2.3-1.2-3.2-2.2
			s-1.5-2.3-2-3.8s-0.7-3.3-0.7-5.3c0-4.1,0.9-7.1,2.6-9.1s4.3-3,7.6-3c1.6,0,3,0.2,4.2,0.7s2.3,1.2,3.2,2.2s1.5,2.2,2,3.8
			C758.4,199.6,758.6,201.4,758.6,203.4z M742.5,203.4c0,1.6,0.1,3,0.3,4.3c0.2,1.2,0.6,2.3,1,3.1s1.1,1.5,1.8,1.9
			c0.8,0.4,1.7,0.6,2.8,0.6s2-0.2,2.8-0.6c0.8-0.4,1.4-1,1.8-1.9s0.8-1.9,1-3.1c0.2-1.2,0.3-2.7,0.3-4.3s-0.1-3-0.3-4.2
			s-0.6-2.2-1-3c-0.5-0.8-1.1-1.4-1.8-1.8c-0.8-0.4-1.7-0.6-2.8-0.6s-2,0.2-2.8,0.6c-0.7,0.4-1.4,1-1.8,1.8c-0.5,0.8-0.8,1.8-1,3
			S742.5,201.8,742.5,203.4z"/>
		<path class="st6" d="M777.7,194.9c0-0.5-0.2-0.9-0.7-1c-0.4-0.2-1-0.2-1.7-0.2h-0.1v-1.8h9.5v1.8h-0.4c-0.4,0-0.8,0-1.2,0.1
			c-0.3,0.1-0.7,0.2-1,0.4s-0.7,0.5-1,0.8c-0.4,0.4-0.7,0.8-1.2,1.4l-4.5,6l6.4,8.6c0.6,0.8,1.2,1.4,1.8,1.8
			c0.6,0.3,1.1,0.5,1.7,0.5h0.6v1.8h-11.2v-1.8h0.2c1.7,0,2.6-0.5,2.6-1.4c0-0.2,0-0.3-0.1-0.5c0-0.2-0.1-0.4-0.3-0.6
			c-0.1-0.2-0.3-0.5-0.5-0.8s-0.5-0.7-0.8-1.1l-2.9-3.9l-3,4.2c-0.1,0.2-0.3,0.4-0.4,0.6c-0.1,0.2-0.3,0.5-0.4,0.7
			c-0.1,0.2-0.2,0.5-0.3,0.7s-0.1,0.5-0.1,0.7c0,0.5,0.2,0.8,0.6,1c0.4,0.2,1.1,0.3,2.1,0.3h0.1v1.8h-10.4v-1.8h0.4
			c0.5,0,1,0,1.4-0.1s0.8-0.2,1.1-0.4c0.4-0.2,0.7-0.5,1.1-0.9s0.7-0.8,1.2-1.3l5.5-7.1l-5.5-7.5c-0.6-0.8-1.3-1.3-1.9-1.7
			c-0.6-0.4-1.2-0.6-1.9-0.6h-0.6v-1.8h11v1.8h-0.1c-0.5,0-0.9,0-1.2,0.1s-0.6,0.2-0.8,0.3s-0.3,0.3-0.4,0.4
			c-0.1,0.2-0.1,0.3-0.1,0.5c0,0.3,0.1,0.6,0.3,0.9c0.2,0.3,0.4,0.7,0.8,1.1l2.9,3.9l2.2-3.2c0.3-0.5,0.6-1,0.8-1.4
			S777.7,195.3,777.7,194.9z"/>
		<path class="st6" d="M798.6,215.5c-1.6,0-3-0.3-4.2-0.8c-1.3-0.5-2.3-1.3-3.2-2.3s-1.5-2.3-2-3.7c-0.5-1.5-0.7-3.2-0.7-5
			c0-4.1,0.8-7.1,2.5-9.2c1.7-2,4-3.1,7.1-3.1c1.4,0,2.7,0.2,3.8,0.7c1.1,0.4,2.1,1.1,2.8,2c0.8,0.9,1.4,2,1.8,3.2
			c0.4,1.3,0.6,2.8,0.6,4.5v2h-14.5c0,1.6,0.2,2.9,0.5,4.1c0.3,1.1,0.7,2.1,1.3,2.8c0.5,0.7,1.2,1.3,2,1.6s1.7,0.5,2.7,0.5
			c0.8,0,1.4-0.1,2.1-0.3c0.6-0.2,1.2-0.4,1.7-0.7s1-0.6,1.4-1s0.7-0.7,1-1.1c0.2,0.1,0.4,0.3,0.6,0.5s0.3,0.6,0.3,1
			s-0.2,0.9-0.5,1.4s-0.8,1-1.4,1.4c-0.6,0.4-1.4,0.8-2.4,1.1C801,215.4,799.9,215.5,798.6,215.5z M798,193.7c-1.6,0-2.9,0.7-3.7,2
			c-0.9,1.3-1.4,3.2-1.5,5.7h10c0-1.1-0.1-2.2-0.3-3.1c-0.2-0.9-0.4-1.8-0.8-2.4c-0.4-0.7-0.9-1.2-1.5-1.6
			C799.7,193.9,798.9,193.7,798,193.7z"/>
		<path class="st6" d="M836.3,215.5c-1.7,0-3.2-0.2-4.6-0.5c-1.4-0.4-2.5-0.9-3.4-1.7s-1.7-1.8-2.2-3s-0.7-2.7-0.7-4.5v-16.9
			c0-0.6-0.1-1.1-0.3-1.5s-0.4-0.7-0.8-0.9c-0.3-0.2-0.7-0.3-1.1-0.4c-0.4-0.1-0.9-0.1-1.4-0.1h-0.6v-1.8h12.6v1.8h-0.6
			c-0.5,0-0.9,0-1.4,0.1c-0.4,0.1-0.8,0.2-1.1,0.4s-0.6,0.5-0.8,0.9s-0.3,1-0.3,1.6v16.9c0,1.3,0.2,2.3,0.5,3.2s0.9,1.6,1.5,2.2
			s1.4,1,2.3,1.2c0.9,0.3,1.9,0.4,2.9,0.4c1.3,0,2.3-0.2,3.3-0.5c0.9-0.3,1.7-0.8,2.3-1.4c0.6-0.6,1-1.3,1.3-2.1s0.4-1.7,0.4-2.7
			v-17.3c0-0.6-0.1-1.1-0.3-1.5s-0.4-0.7-0.8-0.9s-0.7-0.3-1.1-0.4c-0.4-0.1-0.9-0.1-1.4-0.1h-0.6v-1.8h11.2v1.8h-0.6
			c-0.5,0-0.9,0-1.4,0.1c-0.4,0.1-0.8,0.2-1.1,0.4s-0.6,0.5-0.8,0.9s-0.3,1-0.3,1.6v17.2c0,1.4-0.2,2.7-0.7,3.9s-1.1,2.1-2,2.9
			c-0.9,0.8-2,1.4-3.3,1.8C839.6,215.3,838.1,215.5,836.3,215.5z"/>
		<path class="st6" d="M866.5,201.1l5.8,8.6c0.8,1.2,1.5,2,2.2,2.7c0.7,0.6,1.6,0.9,2.6,0.9h0.1v1.8h-0.6c-1.3,0-2.3,0-3.1-0.1
			s-1.5-0.3-2.1-0.6s-1.1-0.7-1.6-1.3s-1-1.3-1.7-2.3l-4.3-6.8l-3.2,2.4v3.9c0,0.6,0.1,1.1,0.3,1.5s0.4,0.7,0.8,0.9s0.7,0.3,1.1,0.4
			c0.4,0.1,0.9,0.1,1.4,0.1h0.1v1.8h-11.7v-1.8h0.3c0.5,0,1,0,1.4-0.1s0.8-0.2,1.1-0.4s0.6-0.5,0.8-0.9s0.3-1,0.3-1.6v-23.3
			c0-0.6-0.1-1.1-0.3-1.5s-0.4-0.7-0.8-0.9s-0.7-0.4-1.1-0.4c-0.4-0.1-0.9-0.1-1.4-0.1h-0.3v-1.8h8v16.7c0,0.4,0,0.9,0,1.5
			s0,1.2-0.1,1.8c0,0.7-0.1,1.4-0.1,2.1l5.4-5.9c0.5-0.5,0.9-1,1.2-1.4s0.5-0.7,0.7-1s0.3-0.6,0.4-0.8s0.1-0.5,0.1-0.7
			c0-0.4-0.2-0.6-0.5-0.7c-0.3-0.1-0.9-0.2-1.6-0.2v-1.8h9.6v1.8c-1,0-2,0.4-3,1.1c-1,0.7-2,1.7-3.1,3L866.5,201.1z"/>
		<path class="st6" d="M891.2,215.1h-12.5v-1.8h0.1c0.5,0,1,0,1.4-0.1s0.8-0.2,1.1-0.4s0.6-0.5,0.8-0.9s0.3-1,0.3-1.6v-13.6
			c0-0.6-0.1-1.1-0.3-1.5s-0.4-0.7-0.8-0.9c-0.3-0.2-0.7-0.4-1.1-0.4c-0.4-0.1-0.9-0.1-1.4-0.1h-0.1V192h6.7l0.8,4.3h0.2
			c0.3-0.6,0.6-1.3,0.9-1.8c0.3-0.6,0.7-1.1,1.1-1.5s1-0.8,1.6-1s1.4-0.4,2.4-0.4c1.6,0,2.8,0.3,3.5,0.8c0.8,0.6,1.2,1.3,1.2,2.3
			c0,0.5-0.1,0.9-0.2,1.3s-0.4,0.7-0.7,1s-0.7,0.5-1.3,0.6c-0.5,0.1-1.1,0.2-1.9,0.2c0-1.2-0.2-2.1-0.5-2.6s-0.9-0.8-1.8-0.8
			c-0.5,0-1,0.2-1.4,0.5s-0.8,0.7-1.1,1.2s-0.6,1.1-0.8,1.7c-0.2,0.7-0.4,1.3-0.5,2s-0.2,1.4-0.3,2s-0.1,1.3-0.1,1.8v6.8
			c0,0.6,0.1,1.1,0.3,1.5s0.4,0.7,0.8,0.9c0.3,0.2,0.7,0.3,1.1,0.4c0.4,0.1,0.9,0.1,1.4,0.1h1.2v1.8H891.2z"/>
		<path class="st6" d="M908.4,193.6c-0.8,0-1.5,0.1-2,0.3s-0.9,0.6-1.2,1s-0.5,0.9-0.6,1.5s-0.1,1.2-0.1,1.9c-1.2,0-2.1-0.2-2.7-0.6
			c-0.6-0.4-0.9-1.1-0.9-2.1c0-0.7,0.2-1.4,0.6-1.9c0.4-0.5,1-1,1.7-1.3s1.5-0.6,2.5-0.7c0.9-0.2,2-0.2,3-0.2c1.3,0,2.5,0.1,3.5,0.4
			c1,0.3,1.8,0.7,2.5,1.3s1.2,1.4,1.5,2.3c0.3,1,0.5,2.1,0.5,3.5v11.3c0,0.6,0,1.1,0.1,1.5s0.3,0.7,0.5,1s0.5,0.4,0.8,0.5
			s0.8,0.1,1.2,0.1h0.1v1.8h-5.9l-0.7-3.7h-0.4c-0.5,0.6-0.9,1.2-1.3,1.7c-0.4,0.5-0.9,0.9-1.4,1.3c-0.5,0.4-1.1,0.7-1.7,0.9
			c-0.6,0.2-1.4,0.3-2.3,0.3c-1,0-1.9-0.1-2.7-0.4s-1.5-0.7-2.1-1.3s-1.1-1.3-1.4-2.2c-0.3-0.9-0.5-1.9-0.5-3.1c0-2.3,0.8-4,2.5-5.1
			c1.6-1.1,4.1-1.7,7.4-1.8l3.6-0.1v-2.8c0-0.8,0-1.5-0.1-2.2s-0.3-1.2-0.6-1.7s-0.7-0.8-1.2-1.1C910,193.7,909.3,193.6,908.4,193.6
			z M903.2,208.8c0,1.4,0.3,2.4,0.9,3c0.6,0.7,1.5,1,2.7,1c0.9,0,1.7-0.1,2.4-0.4c0.7-0.3,1.3-0.7,1.8-1.2s0.9-1.2,1.2-1.9
			s0.4-1.6,0.4-2.5v-3.5l-2.8,0.1c-1.2,0.1-2.3,0.2-3.1,0.5c-0.8,0.2-1.5,0.6-2,1s-0.9,1-1.1,1.6C903.3,207.2,903.2,208,903.2,208.8
			z"/>
		<path class="st6" d="M922.8,213.3c0.5,0,0.9,0,1.4-0.1c0.4-0.1,0.8-0.2,1.1-0.4s0.6-0.5,0.8-0.9s0.3-0.9,0.3-1.5v-13.8
			c0-0.6-0.1-1.1-0.3-1.5s-0.4-0.7-0.8-0.9c-0.3-0.2-0.7-0.4-1.1-0.4c-0.4-0.1-0.9-0.1-1.4-0.1h-0.1v-1.8h7.8v18.3
			c0,0.7,0.1,1.2,0.3,1.6c0.2,0.4,0.4,0.7,0.8,0.9c0.3,0.2,0.7,0.4,1.1,0.4c0.4,0.1,0.9,0.1,1.4,0.1h0.6v1.8h-12.3v-1.8L922.8,213.3
			L922.8,213.3z M925.7,184.8c0-0.5,0.1-0.9,0.2-1.3c0.1-0.3,0.3-0.6,0.5-0.8s0.5-0.4,0.8-0.4s0.6-0.1,1-0.1c0.3,0,0.7,0,1,0.1
			s0.6,0.2,0.8,0.4s0.4,0.5,0.5,0.8s0.2,0.8,0.2,1.3s-0.1,0.9-0.2,1.3c-0.1,0.3-0.3,0.6-0.5,0.8s-0.5,0.4-0.8,0.5s-0.6,0.1-1,0.1
			s-0.7,0-1-0.1s-0.6-0.2-0.8-0.5c-0.2-0.2-0.4-0.5-0.5-0.8C925.8,185.7,925.7,185.3,925.7,184.8z"/>
		<path class="st6" d="M948,213.3v1.8h-11.7v-1.8h0.4c0.5,0,1,0,1.4-0.1s0.8-0.2,1.1-0.4s0.6-0.5,0.8-0.9s0.3-1,0.3-1.6v-13.6
			c0-0.6-0.1-1.1-0.3-1.5s-0.4-0.7-0.8-0.9c-0.3-0.2-0.7-0.4-1.1-0.4c-0.4-0.1-0.9-0.1-1.4-0.1h-0.1V192h7l0.6,3.5h0.2
			c0.5-0.8,0.9-1.5,1.4-2s1-0.9,1.6-1.2s1.2-0.5,1.8-0.6s1.3-0.2,2-0.2c1.1,0,2.2,0.2,3.1,0.5c0.9,0.3,1.7,0.8,2.3,1.5
			s1.1,1.6,1.4,2.6c0.3,1.1,0.5,2.4,0.5,3.8v10.3c0,0.7,0.1,1.2,0.2,1.6c0.2,0.4,0.4,0.7,0.7,0.9s0.7,0.4,1.1,0.4
			c0.4,0.1,0.9,0.1,1.3,0.1h0.1v1.8h-7.6v-15c0-0.9-0.1-1.8-0.3-2.5s-0.4-1.4-0.8-1.9c-0.4-0.5-0.9-0.9-1.5-1.2s-1.4-0.4-2.2-0.4
			c-1,0-1.8,0.2-2.5,0.6c-0.7,0.4-1.2,0.9-1.6,1.5s-0.7,1.4-0.9,2.2s-0.3,1.7-0.3,2.7v9.2c0,0.6,0.1,1.1,0.3,1.5s0.4,0.7,0.8,0.9
			c0.3,0.2,0.7,0.3,1.1,0.4c0.4,0.1,0.9,0.1,1.4,0.1h0.2V213.3z"/>
		<path class="st6" d="M964.7,213.3c0.5,0,0.9,0,1.4-0.1c0.4-0.1,0.8-0.2,1.1-0.4s0.6-0.5,0.8-0.9s0.3-0.9,0.3-1.5v-13.8
			c0-0.6-0.1-1.1-0.3-1.5s-0.4-0.7-0.8-0.9c-0.3-0.2-0.7-0.4-1.1-0.4c-0.4-0.1-0.9-0.1-1.4-0.1h-0.1v-1.8h7.8v18.3
			c0,0.7,0.1,1.2,0.3,1.6c0.2,0.4,0.4,0.7,0.8,0.9c0.3,0.2,0.7,0.4,1.1,0.4c0.4,0.1,0.9,0.1,1.4,0.1h0.6v1.8h-12.5v-1.8L964.7,213.3
			L964.7,213.3z M967.7,184.8c0-0.5,0.1-0.9,0.2-1.3c0.1-0.3,0.3-0.6,0.5-0.8s0.5-0.4,0.8-0.4s0.6-0.1,1-0.1c0.3,0,0.7,0,1,0.1
			s0.6,0.2,0.8,0.4s0.4,0.5,0.5,0.8s0.2,0.8,0.2,1.3s-0.1,0.9-0.2,1.3c-0.1,0.3-0.3,0.6-0.5,0.8s-0.5,0.4-0.8,0.5s-0.6,0.1-1,0.1
			s-0.7,0-1-0.1s-0.6-0.2-0.8-0.5c-0.2-0.2-0.4-0.5-0.5-0.8C967.7,185.7,967.7,185.3,967.7,184.8z"/>
		<path class="st6" d="M989.5,215.5c-1.6,0-3-0.3-4.2-0.8c-1.3-0.5-2.3-1.3-3.2-2.3s-1.5-2.3-2-3.7c-0.5-1.5-0.7-3.2-0.7-5
			c0-4.1,0.8-7.1,2.5-9.2c1.7-2,4-3.1,7.1-3.1c1.4,0,2.7,0.2,3.8,0.7c1.1,0.4,2.1,1.1,2.8,2c0.8,0.9,1.4,2,1.8,3.2
			c0.4,1.3,0.6,2.8,0.6,4.5v2h-14.5c0,1.6,0.2,2.9,0.5,4.1c0.3,1.1,0.7,2.1,1.3,2.8c0.5,0.7,1.2,1.3,2,1.6s1.7,0.5,2.7,0.5
			c0.8,0,1.4-0.1,2.1-0.3c0.6-0.2,1.2-0.4,1.7-0.7s1-0.6,1.4-1s0.7-0.7,1-1.1c0.2,0.1,0.4,0.3,0.6,0.5s0.3,0.6,0.3,1
			s-0.2,0.9-0.5,1.4s-0.8,1-1.4,1.4c-0.6,0.4-1.4,0.8-2.4,1.1C991.9,215.4,990.8,215.5,989.5,215.5z M989,193.7
			c-1.6,0-2.9,0.7-3.7,2c-0.9,1.3-1.4,3.2-1.5,5.7h10c0-1.1-0.1-2.2-0.3-3.1c-0.2-0.9-0.4-1.8-0.8-2.4c-0.4-0.7-0.9-1.2-1.5-1.6
			C990.6,193.9,989.8,193.7,989,193.7z"/>
		<path class="st6" d="M1013.2,213.3v1.8h-11.7v-1.8h0.4c0.5,0,1,0,1.4-0.1s0.8-0.2,1.1-0.4s0.6-0.5,0.8-0.9s0.3-1,0.3-1.6v-13.6
			c0-0.6-0.1-1.1-0.3-1.5s-0.4-0.7-0.8-0.9c-0.3-0.2-0.7-0.4-1.1-0.4c-0.4-0.1-0.9-0.1-1.4-0.1h-0.1V192h7l0.6,3.5h0.2
			c0.5-0.8,0.9-1.5,1.4-2s1-0.9,1.6-1.2s1.2-0.5,1.8-0.6s1.3-0.2,2-0.2c1.1,0,2.2,0.2,3.1,0.5c0.9,0.3,1.7,0.8,2.3,1.5
			s1.1,1.6,1.4,2.6c0.3,1.1,0.5,2.4,0.5,3.8v10.3c0,0.7,0.1,1.2,0.2,1.6c0.2,0.4,0.4,0.7,0.7,0.9c0.3,0.2,0.7,0.4,1.1,0.4
			c0.4,0.1,0.9,0.1,1.3,0.1h0.1v1.8h-7.6v-15c0-0.9-0.1-1.8-0.3-2.5s-0.4-1.4-0.8-1.9c-0.4-0.5-0.9-0.9-1.5-1.2s-1.4-0.4-2.2-0.4
			c-1,0-1.8,0.2-2.5,0.6c-0.7,0.4-1.2,0.9-1.6,1.5s-0.7,1.4-0.9,2.2s-0.3,1.7-0.3,2.7v9.2c0,0.6,0.1,1.1,0.3,1.5s0.4,0.7,0.8,0.9
			c0.3,0.2,0.7,0.3,1.1,0.4c0.4,0.1,0.9,0.1,1.4,0.1h0.2V213.3z"/>
		<path class="st6" d="M1041.2,213.3v1.8h-11.7v-1.8h0.4c0.5,0,1,0,1.4-0.1s0.8-0.2,1.1-0.4c0.3-0.2,0.6-0.5,0.8-0.9
			c0.2-0.4,0.3-1,0.3-1.6v-13.6c0-0.6-0.1-1.1-0.3-1.5c-0.2-0.4-0.4-0.7-0.8-0.9c-0.3-0.2-0.7-0.4-1.1-0.4c-0.4-0.1-0.9-0.1-1.4-0.1
			h-0.1V192h7l0.6,3.5h0.2c0.5-0.8,0.9-1.5,1.4-2s1-0.9,1.6-1.2s1.2-0.5,1.8-0.6c0.6-0.1,1.3-0.2,2-0.2c1.1,0,2.2,0.2,3.1,0.5
			s1.7,0.8,2.3,1.5c0.6,0.7,1.1,1.6,1.4,2.6c0.3,1.1,0.5,2.4,0.5,3.8v10.3c0,0.7,0.1,1.2,0.2,1.6c0.2,0.4,0.4,0.7,0.7,0.9
			c0.3,0.2,0.7,0.4,1.1,0.4c0.4,0.1,0.9,0.1,1.3,0.1h0.1v1.8h-7.6v-15c0-0.9-0.1-1.8-0.3-2.5c-0.2-0.7-0.4-1.4-0.8-1.9
			s-0.9-0.9-1.5-1.2s-1.4-0.4-2.2-0.4c-1,0-1.8,0.2-2.5,0.6c-0.7,0.4-1.2,0.9-1.6,1.5s-0.7,1.4-0.9,2.2c-0.2,0.8-0.3,1.7-0.3,2.7
			v9.2c0,0.6,0.1,1.1,0.3,1.5c0.2,0.4,0.4,0.7,0.8,0.9c0.3,0.2,0.7,0.3,1.1,0.4c0.4,0.1,0.9,0.1,1.4,0.1h0.2V213.3z"/>
		<path class="st6" d="M1068.8,215.5c-1.6,0-3-0.3-4.2-0.8c-1.3-0.5-2.3-1.3-3.2-2.3c-0.9-1-1.5-2.3-2-3.7c-0.5-1.5-0.7-3.2-0.7-5
			c0-4.1,0.8-7.1,2.5-9.2c1.7-2,4-3.1,7.1-3.1c1.4,0,2.7,0.2,3.8,0.7c1.1,0.4,2.1,1.1,2.8,2c0.8,0.9,1.4,2,1.8,3.2
			c0.4,1.3,0.6,2.8,0.6,4.5v2h-14.5c0,1.6,0.2,2.9,0.5,4.1c0.3,1.1,0.7,2.1,1.3,2.8c0.5,0.7,1.2,1.3,2,1.6s1.7,0.5,2.7,0.5
			c0.8,0,1.4-0.1,2.1-0.3c0.6-0.2,1.2-0.4,1.7-0.7s1-0.6,1.4-1s0.7-0.7,1-1.1c0.2,0.1,0.4,0.3,0.6,0.5s0.3,0.6,0.3,1
			s-0.2,0.9-0.5,1.4s-0.8,1-1.4,1.4s-1.4,0.8-2.4,1.1C1071.2,215.4,1070.1,215.5,1068.8,215.5z M1068.2,193.7c-1.6,0-2.9,0.7-3.7,2
			c-0.9,1.3-1.4,3.2-1.5,5.7h10c0-1.1-0.1-2.2-0.3-3.1c-0.2-0.9-0.4-1.8-0.8-2.4c-0.4-0.7-0.9-1.2-1.5-1.6
			C1069.9,193.9,1069.1,193.7,1068.2,193.7z"/>
	</g>
	<g class="st5">
		<path class="st6" d="M369,279.8c-2.2,0-4.1-0.2-5.7-0.7s-3-1.1-4.1-1.9s-1.9-1.8-2.5-2.9c-0.6-1.2-0.8-2.4-0.8-3.8
			c0-1.3,0.4-2.4,1.2-3.2c0.8-0.8,2-1.2,3.5-1.2c0.1,1.4,0.3,2.7,0.6,4c0.4,1.3,0.9,2.4,1.6,3.4s1.6,1.7,2.7,2.3
			c1.1,0.6,2.4,0.9,4,0.9c3,0,5.3-0.7,7-2.1s2.5-3.5,2.5-6.2c0-1.2-0.2-2.3-0.5-3.2c-0.3-0.9-0.9-1.8-1.7-2.6
			c-0.8-0.8-1.8-1.5-3.2-2.3c-1.3-0.7-2.9-1.5-4.9-2.3s-3.8-1.7-5.4-2.7c-1.5-1-2.8-2-3.8-3.2s-1.8-2.5-2.3-3.9s-0.7-3.1-0.7-4.9
			c0-1.9,0.4-3.6,1.1-5.1s1.7-2.7,3-3.8s2.8-1.8,4.6-2.3c1.8-0.5,3.7-0.8,5.8-0.8c2,0,3.7,0.2,5.3,0.6c1.5,0.4,2.8,1,3.9,1.6
			c1.1,0.7,1.9,1.5,2.4,2.4s0.8,1.8,0.8,2.8c0,1.4-0.5,2.5-1.4,3.2s-2.2,1.1-3.8,1.1c0-1-0.1-2.1-0.4-3.1c-0.2-1-0.7-1.9-1.2-2.7
			c-0.6-0.8-1.3-1.4-2.3-1.9c-0.9-0.5-2.1-0.7-3.5-0.7c-1.3,0-2.4,0.2-3.4,0.5c-1,0.4-1.8,0.9-2.5,1.5c-0.7,0.7-1.2,1.4-1.6,2.4
			c-0.4,0.9-0.5,2-0.5,3.1c0,1.3,0.2,2.5,0.5,3.5s0.9,1.9,1.7,2.7c0.8,0.8,1.9,1.6,3.2,2.3c1.3,0.7,2.9,1.5,4.8,2.2
			c1.9,0.8,3.7,1.6,5.2,2.5s2.8,1.9,3.9,3s1.9,2.3,2.4,3.7c0.6,1.3,0.8,2.9,0.8,4.6c0,2.1-0.4,4-1.1,5.6c-0.8,1.6-1.9,3-3.3,4.2
			c-1.4,1.1-3.1,2-5.1,2.6C373.8,279.5,371.5,279.8,369,279.8z"/>
		<path class="st6" d="M406.4,246.3c-1.3,0-2.3,0.2-3.1,0.5c-0.8,0.4-1.4,0.9-1.8,1.5s-0.7,1.4-0.9,2.3c-0.2,0.9-0.2,1.8-0.2,2.9
			c-1.8,0-3.2-0.3-4.2-0.9s-1.4-1.7-1.4-3.2c0-1.1,0.3-2.1,0.9-2.9s1.5-1.4,2.6-2c1.1-0.5,2.4-0.9,3.8-1.1s3-0.4,4.6-0.4
			c2,0,3.8,0.2,5.3,0.6s2.8,1,3.8,2c1,0.9,1.8,2.1,2.3,3.5c0.5,1.5,0.8,3.2,0.8,5.3v17.2c0,0.9,0.1,1.7,0.2,2.3
			c0.2,0.6,0.4,1.1,0.7,1.5c0.3,0.4,0.7,0.6,1.3,0.8s1.2,0.2,1.9,0.2h0.2v2.8h-9l-1-5.7h-0.5c-0.7,0.9-1.4,1.8-2,2.6
			c-0.6,0.8-1.4,1.4-2.1,2c-0.8,0.6-1.7,1-2.6,1.3c-1,0.3-2.2,0.5-3.5,0.5c-1.5,0-2.8-0.2-4.1-0.6c-1.3-0.4-2.3-1.1-3.3-1.9
			c-0.9-0.9-1.6-2-2.1-3.3s-0.8-2.9-0.8-4.7c0-3.5,1.2-6.1,3.7-7.8c2.5-1.7,6.3-2.6,11.3-2.8l5.5-0.2v-4c0-1.2-0.1-2.3-0.2-3.3
			s-0.4-1.9-0.8-2.6s-1.1-1.3-1.9-1.7S407.8,246.3,406.4,246.3z M398.4,269.5c0,2.1,0.4,3.6,1.3,4.6s2.2,1.5,4.1,1.5
			c1.3,0,2.5-0.2,3.6-0.6s2-1,2.8-1.8s1.4-1.8,1.8-2.9s0.6-2.4,0.6-3.8v-5.4l-4.2,0.2c-1.9,0.1-3.4,0.3-4.7,0.7
			c-1.3,0.4-2.3,0.9-3.1,1.6c-0.8,0.7-1.3,1.5-1.7,2.5C398.6,267.1,398.4,268.2,398.4,269.5z"/>
		<path class="st6" d="M428.3,276.3c0.7,0,1.4,0,2.1-0.1s1.2-0.3,1.7-0.6s0.9-0.7,1.2-1.3c0.3-0.6,0.4-1.4,0.4-2.3v-21
			c0-1-0.1-1.8-0.4-2.3c-0.3-0.6-0.7-1-1.2-1.4s-1.1-0.5-1.7-0.6c-0.7-0.1-1.4-0.2-2.1-0.2h-0.2v-2.8h11.8v28c0,1,0.1,1.9,0.4,2.5
			s0.7,1.1,1.2,1.4s1.1,0.6,1.7,0.7c0.7,0.1,1.4,0.2,2.1,0.2h0.9v2.8h-18.8v-2.8h0.9V276.3z M432.8,232.9c0-0.8,0.1-1.4,0.3-1.9
			c0.2-0.5,0.5-0.9,0.8-1.3c0.3-0.3,0.7-0.5,1.2-0.7c0.5-0.1,0.9-0.2,1.5-0.2c0.5,0,1,0.1,1.5,0.2c0.5,0.1,0.8,0.4,1.2,0.7
			c0.3,0.3,0.6,0.7,0.8,1.3c0.2,0.5,0.3,1.2,0.3,1.9c0,0.8-0.1,1.4-0.3,1.9c-0.2,0.5-0.5,0.9-0.8,1.3c-0.3,0.3-0.7,0.6-1.2,0.7
			s-0.9,0.2-1.5,0.2c-0.5,0-1-0.1-1.5-0.2s-0.9-0.4-1.2-0.7c-0.3-0.3-0.6-0.7-0.8-1.3C432.9,234.3,432.8,233.7,432.8,232.9z"/>
		<path class="st6" d="M466.8,276.3v2.8H449v-2.8h0.5c0.8,0,1.5-0.1,2.1-0.2c0.7-0.1,1.2-0.3,1.7-0.7c0.5-0.3,0.9-0.8,1.2-1.4
			c0.3-0.6,0.4-1.5,0.4-2.5v-20.6c0-1-0.1-1.8-0.4-2.3c-0.3-0.6-0.7-1-1.2-1.4s-1.1-0.5-1.7-0.6c-0.7-0.1-1.4-0.2-2.1-0.2h-0.2v-2.8
			H460l0.9,5.4h0.3c0.7-1.2,1.4-2.2,2.2-3c0.8-0.8,1.6-1.4,2.4-1.8c0.9-0.4,1.8-0.7,2.7-0.9c1-0.2,2-0.2,3-0.2
			c1.7,0,3.3,0.3,4.7,0.8c1.4,0.5,2.5,1.3,3.5,2.3s1.7,2.4,2.2,4s0.8,3.6,0.8,5.8v15.6c0,1,0.1,1.9,0.4,2.5c0.2,0.6,0.6,1.1,1,1.4
			c0.5,0.3,1,0.6,1.6,0.7s1.3,0.2,2,0.2h0.2v2.8h-11.5v-22.8c0-1.4-0.1-2.7-0.4-3.8s-0.7-2.1-1.2-2.8s-1.3-1.4-2.2-1.8
			c-0.9-0.4-2.1-0.6-3.4-0.6c-1.5,0-2.8,0.3-3.8,0.9s-1.8,1.4-2.5,2.4c-0.6,1-1.1,2.1-1.3,3.4c-0.3,1.3-0.4,2.6-0.4,4.1v14
			c0,1,0.1,1.8,0.4,2.3c0.3,0.6,0.7,1,1.2,1.3s1.1,0.5,1.7,0.6c0.7,0.1,1.4,0.1,2.1,0.1h0.2L466.8,276.3L466.8,276.3z"/>
		<path class="st6" d="M507.3,276.3c0.8,0,1.5,0,2.2-0.1s1.3-0.2,2-0.3v2.9c-0.3,0.1-0.6,0.3-1.1,0.4s-0.9,0.2-1.5,0.3
			c-0.5,0.1-1.1,0.2-1.7,0.2s-1.1,0.1-1.6,0.1c-1.7,0-3.1-0.2-4.3-0.5c-1.2-0.4-2.2-0.9-3-1.7s-1.4-1.9-1.7-3.2
			c-0.4-1.3-0.6-2.9-0.6-4.8v-22.1h-5v-2.7c0.8,0,1.7-0.2,2.6-0.5c1-0.3,1.8-0.9,2.5-1.6c0.8-0.8,1.4-1.8,1.8-2.9
			c0.5-1.1,0.9-2.5,1.2-4.2h3v8.1h8.7v3.8h-8.7v22.3c0,2.3,0.5,3.9,1.4,5C504.6,275.7,505.8,276.3,507.3,276.3z"/>
		<path class="st6" d="M532.1,279.8c-2.4,0-4.5-0.4-6.4-1.2c-1.9-0.8-3.5-2-4.8-3.5c-1.3-1.6-2.3-3.5-3-5.7c-0.7-2.3-1-4.8-1-7.7
			c0-6.2,1.3-10.8,3.8-14c2.5-3.1,6.2-4.7,10.9-4.7c2.1,0,4,0.3,5.8,1c1.7,0.7,3.1,1.7,4.3,3s2.1,3,2.7,4.9c0.6,2,1,4.3,1,6.9v3h-22
			c0,2.4,0.3,4.5,0.7,6.2s1.1,3.2,1.9,4.3s1.8,1.9,3.1,2.5c1.2,0.5,2.6,0.8,4.2,0.8c1.1,0,2.2-0.1,3.2-0.4s1.9-0.6,2.7-1
			s1.5-0.9,2.1-1.5c0.6-0.5,1.1-1.1,1.5-1.7c0.3,0.1,0.6,0.4,0.9,0.8c0.3,0.4,0.4,0.9,0.4,1.5c0,0.7-0.2,1.4-0.7,2.1
			c-0.5,0.8-1.2,1.5-2.2,2.1s-2.2,1.2-3.6,1.6S534.1,279.8,532.1,279.8z M531.3,246.5c-2.5,0-4.3,1-5.7,3s-2.1,4.9-2.3,8.7h15.2
			c0-1.7-0.1-3.3-0.4-4.8s-0.7-2.7-1.2-3.7c-0.6-1-1.3-1.8-2.2-2.4C533.7,246.8,532.6,246.5,531.3,246.5z"/>
		<path class="st6" d="M550.2,263.6v-5h17.2v5H550.2z"/>
		<path class="st6" d="M585.4,279.8c-2.2,0-4.1-0.2-5.7-0.7c-1.6-0.5-3-1.1-4.1-1.9s-1.9-1.8-2.5-2.9c-0.6-1.2-0.8-2.4-0.8-3.8
			c0-1.3,0.4-2.4,1.2-3.2c0.8-0.8,2-1.2,3.5-1.2c0.1,1.4,0.3,2.7,0.6,4c0.4,1.3,0.9,2.4,1.6,3.4c0.7,1,1.6,1.7,2.7,2.3
			c1.1,0.6,2.4,0.9,4,0.9c3,0,5.3-0.7,7-2.1s2.5-3.5,2.5-6.2c0-1.2-0.2-2.3-0.5-3.2c-0.3-0.9-0.9-1.8-1.7-2.6s-1.8-1.5-3.2-2.3
			c-1.3-0.7-2.9-1.5-4.9-2.3s-3.8-1.7-5.4-2.7c-1.5-1-2.8-2-3.8-3.2s-1.8-2.5-2.3-3.9s-0.7-3.1-0.7-4.9c0-1.9,0.4-3.6,1.1-5.1
			s1.7-2.7,3-3.8c1.3-1,2.8-1.8,4.6-2.3s3.7-0.8,5.8-0.8c2,0,3.7,0.2,5.3,0.6c1.5,0.4,2.8,1,3.9,1.6s1.9,1.5,2.4,2.4
			s0.8,1.8,0.8,2.8c0,1.4-0.5,2.5-1.4,3.2s-2.2,1.1-3.8,1.1c0-1-0.1-2.1-0.4-3.1c-0.2-1-0.7-1.9-1.2-2.7c-0.6-0.8-1.3-1.4-2.3-1.9
			c-0.9-0.5-2.1-0.7-3.5-0.7c-1.3,0-2.4,0.2-3.4,0.5c-1,0.4-1.8,0.9-2.5,1.5s-1.2,1.4-1.6,2.4c-0.4,0.9-0.5,2-0.5,3.1
			c0,1.3,0.2,2.5,0.5,3.5s0.9,1.9,1.7,2.7s1.9,1.6,3.2,2.3s2.9,1.5,4.8,2.2c1.9,0.8,3.7,1.6,5.2,2.5s2.8,1.9,3.9,3
			c1.1,1.1,1.9,2.3,2.4,3.7c0.6,1.3,0.8,2.9,0.8,4.6c0,2.1-0.4,4-1.1,5.6c-0.8,1.6-1.9,3-3.3,4.2c-1.4,1.1-3.1,2-5.1,2.6
			C590.1,279.5,587.9,279.8,585.4,279.8z"/>
		<path class="st6" d="M639.6,261.3c0,6.2-1.3,10.9-4,13.9c-2.6,3-6.5,4.6-11.6,4.6c-2.4,0-4.5-0.4-6.4-1.1s-3.5-1.9-4.8-3.4
			s-2.3-3.5-3-5.8s-1-5-1-8.1c0-6.2,1.3-10.8,3.9-13.8s6.5-4.5,11.6-4.5c2.4,0,4.5,0.4,6.4,1.1s3.5,1.9,4.8,3.4s2.3,3.4,3,5.7
			S639.6,258.2,639.6,261.3z M615.1,261.3c0,2.5,0.2,4.6,0.5,6.5s0.8,3.4,1.6,4.7c0.7,1.3,1.7,2.2,2.8,2.9s2.6,1,4.2,1
			c1.7,0,3.1-0.3,4.2-1s2.1-1.6,2.8-2.9s1.2-2.8,1.5-4.7c0.3-1.9,0.5-4,0.5-6.5s-0.2-4.6-0.5-6.5s-0.8-3.4-1.6-4.6
			c-0.7-1.2-1.6-2.2-2.8-2.8s-2.6-0.9-4.2-0.9c-1.7,0-3.1,0.3-4.2,0.9s-2.1,1.6-2.8,2.8s-1.2,2.8-1.6,4.6
			C615.1,256.6,615.1,258.9,615.1,261.3z"/>
		<path class="st6" d="M680.2,261.3c0,3.2-0.3,5.9-0.9,8.3c-0.6,2.3-1.5,4.2-2.6,5.8s-2.6,2.6-4.2,3.3c-1.7,0.7-3.6,1.1-5.8,1.1
			c-1.3,0-2.4-0.1-3.5-0.4c-1-0.3-2-0.7-2.8-1.2s-1.6-1.1-2.2-1.8c-0.6-0.7-1.2-1.5-1.7-2.4h-0.3c0,1.1,0.1,2.2,0.1,3.2
			c0,0.4,0,0.8,0,1.3s0,0.9,0,1.2c0,0.4,0,0.7,0,1.1c0,0.3,0,0.6,0,0.7v6.3c0,1,0.1,1.8,0.4,2.3s0.7,1,1.2,1.4
			c0.5,0.3,1.1,0.5,1.7,0.6c0.7,0.1,1.4,0.1,2.1,0.1h0.2v2.8h-17.8v-2.8h0.5c0.8,0,1.5-0.1,2.1-0.2c0.7-0.1,1.2-0.3,1.7-0.7
			c0.5-0.3,0.9-0.8,1.2-1.5c0.3-0.6,0.4-1.5,0.4-2.5v-36.4c0-1-0.1-1.8-0.4-2.3c-0.3-0.6-0.7-1-1.2-1.4c-0.5-0.3-1.1-0.5-1.7-0.6
			c-0.7-0.1-1.4-0.2-2.1-0.2h-0.5v-2.8h11.6l0.7,6h0.3c0.5-1,1.1-1.9,1.7-2.7c0.6-0.8,1.3-1.5,2.2-2.1c0.8-0.6,1.7-1,2.8-1.3
			c1-0.3,2.2-0.5,3.5-0.5c2.2,0,4.1,0.4,5.8,1.1s3.1,1.8,4.2,3.3s2,3.4,2.6,5.7C679.9,255.4,680.2,258.1,680.2,261.3z M665.6,247.2
			c-1.7,0-3.2,0.3-4.3,0.9c-1.2,0.6-2.1,1.4-2.8,2.6s-1.2,2.6-1.5,4.4c-0.3,1.8-0.4,3.8-0.4,6.2c0,2.3,0.1,4.3,0.4,6.1
			c0.3,1.8,0.8,3.3,1.5,4.5s1.6,2.1,2.8,2.7s2.6,0.9,4.3,0.9c1.5,0,2.7-0.3,3.7-0.9s1.9-1.5,2.5-2.7c0.7-1.2,1.1-2.7,1.4-4.5
			s0.5-3.8,0.5-6.2c0-2.3-0.2-4.4-0.5-6.2s-0.8-3.2-1.4-4.4c-0.7-1.2-1.5-2-2.6-2.6C668.3,247.5,667,247.2,665.6,247.2z"/>
		<path class="st6" d="M702.8,276.3v2.8H685v-2.8h0.5c0.8,0,1.5-0.1,2.1-0.2c0.7-0.1,1.2-0.3,1.7-0.7c0.5-0.3,0.9-0.8,1.2-1.4
			s0.4-1.5,0.4-2.5V236c0-1-0.1-1.8-0.4-2.3c-0.3-0.6-0.7-1-1.2-1.4c-0.5-0.3-1.1-0.5-1.7-0.6c-0.7-0.1-1.4-0.1-2.1-0.1H685v-2.8
			h12.2v14.5c0,0.6,0,1.2,0,1.9s-0.1,1.3-0.1,1.8c0,0.6-0.1,1.3-0.1,1.9h0.3c2-4,5.2-6,9.7-6c1.9,0,3.5,0.3,5,0.8s2.7,1.3,3.7,2.3
			s1.7,2.4,2.3,4c0.5,1.6,0.8,3.6,0.8,5.8v15.6c0,1,0.1,1.9,0.4,2.5c0.3,0.6,0.6,1.1,1.1,1.4s1,0.6,1.6,0.7s1.3,0.2,2,0.2h0.2v2.8
			h-11.5v-22.8c0-1.4-0.1-2.7-0.4-3.8c-0.3-1.1-0.7-2.1-1.2-2.8c-0.6-0.8-1.3-1.4-2.2-1.8s-2.1-0.6-3.4-0.6c-1.4,0-2.6,0.3-3.6,0.8
			s-1.8,1.2-2.5,2.2c-0.7,0.9-1.1,2.1-1.5,3.4c-0.3,1.3-0.5,2.8-0.5,4.4v14c0,1,0.1,1.8,0.4,2.3c0.3,0.6,0.7,1,1.2,1.3
			s1.1,0.5,1.7,0.6C701.3,276.3,702,276.3,702.8,276.3L702.8,276.3L702.8,276.3z"/>
		<path class="st6" d="M728.2,276.3c0.7,0,1.4,0,2.1-0.1c0.7-0.1,1.2-0.3,1.7-0.6c0.5-0.3,0.9-0.7,1.2-1.3c0.3-0.6,0.4-1.4,0.4-2.3
			v-21c0-1-0.1-1.8-0.4-2.3c-0.3-0.6-0.7-1-1.2-1.4c-0.5-0.3-1.1-0.5-1.7-0.6c-0.7-0.1-1.4-0.2-2.1-0.2H728v-2.8h11.8v28
			c0,1,0.1,1.9,0.4,2.5c0.3,0.6,0.7,1.1,1.2,1.4s1.1,0.6,1.7,0.7c0.7,0.1,1.4,0.2,2.1,0.2h0.9v2.8h-18.8v-2.8h0.9L728.2,276.3
			L728.2,276.3z M732.7,232.9c0-0.8,0.1-1.4,0.3-1.9s0.5-0.9,0.8-1.3c0.3-0.3,0.7-0.5,1.2-0.7s0.9-0.2,1.5-0.2c0.5,0,1,0.1,1.5,0.2
			c0.5,0.1,0.8,0.4,1.2,0.7s0.6,0.7,0.8,1.3c0.2,0.5,0.3,1.2,0.3,1.9c0,0.8-0.1,1.4-0.3,1.9s-0.5,0.9-0.8,1.3s-0.7,0.6-1.2,0.7
			s-0.9,0.2-1.5,0.2c-0.5,0-1-0.1-1.5-0.2s-0.9-0.4-1.2-0.7s-0.6-0.7-0.8-1.3C732.8,234.3,732.7,233.7,732.7,232.9z"/>
		<path class="st6" d="M766,279.8c-2.4,0-4.5-0.4-6.4-1.2s-3.5-2-4.8-3.5c-1.3-1.6-2.3-3.5-3-5.7s-1-4.8-1-7.7
			c0-6.2,1.3-10.8,3.8-14c2.5-3.1,6.2-4.7,10.9-4.7c2.1,0,4,0.3,5.8,1c1.7,0.7,3.1,1.7,4.3,3s2.1,3,2.7,4.9c0.6,2,1,4.3,1,6.9v3h-22
			c0,2.4,0.3,4.5,0.7,6.2s1.1,3.2,1.9,4.3c0.8,1.1,1.8,1.9,3.1,2.5c1.2,0.5,2.6,0.8,4.2,0.8c1.1,0,2.2-0.1,3.2-0.4s1.9-0.6,2.7-1
			s1.5-0.9,2.1-1.5c0.6-0.5,1.1-1.1,1.5-1.7c0.3,0.1,0.6,0.4,0.9,0.8c0.3,0.4,0.4,0.9,0.4,1.5c0,0.7-0.2,1.4-0.7,2.1
			c-0.5,0.8-1.2,1.5-2.2,2.1s-2.2,1.2-3.6,1.6C769.7,279.5,768,279.8,766,279.8z M765.2,246.5c-2.5,0-4.3,1-5.7,3
			c-1.3,2-2.1,4.9-2.3,8.7h15.2c0-1.7-0.1-3.3-0.4-4.8c-0.3-1.4-0.7-2.7-1.2-3.7c-0.6-1-1.3-1.8-2.2-2.4
			C767.6,246.8,766.5,246.5,765.2,246.5z"/>
	</g>
</g>
<rect x="352.7" y="142.4" class="st4" width="721.5" height="6.1"/>
</svg>
